<?xml version="1.0" encoding="utf-8"?>
<!-- Generator: Adobe Illustrator 27.5.0, SVG Export Plug-In . SVG Version: 6.00 Build 0)  -->
<svg version="1.1" id="Layer_1" xmlns="http://www.w3.org/2000/svg" xmlns:xlink="http://www.w3.org/1999/xlink" x="0px" y="0px"
	 viewBox="0 0 365.883 502.871" style="enable-background:new 0 0 365.883 502.871;" xml:space="preserve">
<g>
	<path style="fill:#452F13;" d="M333.078,257.16c-4.454-12.864-11.216-24.459-17.074-36.677
		c-6.394-13.334-8.224-27.367-8.918-41.993c-0.379-7.983-0.816-15.946-1.543-23.906c-0.15-1.642-0.332-3.278-0.527-4.912
		c0.622-0.32,1.143-0.877,1.163-1.522c0.362-11.797-5.371-22.616-10.663-32.792c-5.344-10.275-10.19-20.634-17.238-29.908
		c-14.275-18.784-35.164-30.859-58.451-34.486c-24.51-3.819-49.015,1.745-72.003,10.15c-12.015,4.393-23.683,9.722-34.939,15.796
		c-10.134,5.468-19.924,11.793-28.167,19.897c-4.667,4.589-8.869,9.791-11.852,15.64c-2.937,5.758-4.765,11.943-6.244,18.214
		c-1.653,7.009-2.875,14.083-3.342,21.277c-0.357,5.503-2.323,11.857-0.063,17.147c0.092,0.216,0.265,0.311,0.458,0.323
		c-3.049,16.15-6.572,32.334-12.106,47.826c-5.668,15.866-13.207,30.949-20.306,46.2c-3.198,6.87-6.677,13.779-9.133,20.958
		c-1.937,5.662-3.117,11.61-3.748,17.554c-1.359,12.802-0.762,28.566,7.563,39.142c0.759,0.964,2.862-0.237,2.441-1.375
		c-2.689-7.28-3.179-15.155-2.709-22.984c0.065,0.955,0.142,1.91,0.248,2.865c1.111,10.07,4.66,19.742,9.316,28.695
		c4.604,8.854,10.73,17.029,19.613,21.888c0.963,0.527,3.305-0.91,2.275-1.953c-5.655-5.725-9.417-13.37-11.954-20.924
		c-1.28-3.812-2.383-7.941-2.873-12.106c2.401,10.742,6.948,20.92,14.466,29.202c11.438,12.601,27.589,18.596,43.975,21.643
		c20.806,3.869,42.098,3.027,63.118,1.915c11.524-0.61,23.072-1.555,34.464-3.381c6.583-0.215,13.158-0.739,19.652-1.572
		c25.881-3.321,53.609-11.797,71.954-31.313c3.878-4.126,7.472-8.683,10.201-13.683c-2.866,10.081-7.723,19.822-12.151,29.301
		c-0.51,1.092,0.88,1.477,1.64,1.151c13.859-5.941,22.105-19.717,27.643-33.084c4.365-10.536,7.558-21.405,8.658-32.561
		c0.028,0.851,0.043,1.702,0.038,2.552c-0.022,4.269-0.415,8.527-0.356,12.798c0.047,3.407,0.03,7.66,2.172,10.52
		c0.622,0.831,1.847,0.143,2.292-0.502C344.221,307.654,340.777,279.398,333.078,257.16z M65.877,152.824
		c0.871-6.262,1.636-12.438,3.068-18.611c0.844-3.641,1.778-7.225,2.908-10.714c-1.135,5.871-2.275,11.74-3.255,17.645
		c-1.402,8.449-2.812,16.9-4.373,25.321C63.717,161.948,65.263,157.237,65.877,152.824z"/>
	<path style="opacity:0.56;fill:#523929;" d="M289.293,328.806c3.584-12.319,5.897-25.379,5.09-38.246
		c-0.022-0.345,0.507-0.491,0.661-0.179c2.714,5.507,4.037,11.84,3.785,18.029c2.548-10.154,4.508-20.464,5.552-30.884
		c2.123-21.191,0.371-43.141-9.157-62.477c-4.732-9.603-10.967-18.24-17.655-26.558c1.253,2.091,2.35,4.272,3.221,6.555
		c0.163,0.428-0.523,0.611-0.684,0.189c-0.992-2.6-2.296-5.063-3.785-7.411c-3.322-5.24-7.487-9.937-11.957-14.222
		c-4.041-3.873-8.406-7.542-13.099-10.604c-9.01-5.88-19.457-9.282-29.988-11.174c-21.578-3.876-44.565-2.156-65.381,4.646
		c-22.472,7.342-43.319,20.005-59.143,37.659c-15.189,16.946-26.628,37.498-33.36,59.218c-6.694,21.595-8.74,45.133-2.483,67.082
		c0.11,0.387-0.455,0.626-0.648,0.273c-4.402-8.017-6.223-17.098-7.615-26.063c-2.757,11.661-0.911,24.131,2,35.576
		c1.343,5.28,2.99,10.479,4.837,15.603c0.903,2.504,1.782,5.015,2.977,7.396c2.542,5.065,5.421,9.974,8.338,14.83
		c2.266,3.771,4.586,7.524,7.045,11.181c7.25,3.216,15.046,5.355,22.896,6.815c20.806,3.869,42.098,3.027,63.118,1.915
		c11.524-0.61,23.072-1.555,34.464-3.381c6.583-0.215,13.158-0.739,19.652-1.572c18.594-2.386,38.142-7.433,54.478-17.323
		C280.073,354.481,285.52,341.777,289.293,328.806z"/>
	<g>
		<g>
			<path style="fill:#EFB291;" d="M272.563,356.745c0,0-35.848-17.657-49.225-29.428c-13.376-11.771-9.631-76.512-9.631-76.512
				H187.49h-9.096h-26.217c0,0,3.745,64.741-9.631,76.512c-13.376,11.771-49.225,29.428-49.225,29.428s29.234,48.427,56.77,73.987
				c0,0,7.131,11.056,32.851,10.551c25.72,0.505,32.851-10.551,32.851-10.551C243.329,405.172,272.563,356.745,272.563,356.745z"/>
			<path style="opacity:0.44;fill:#EB936D;" d="M272.563,356.745c0,0-35.848-17.657-49.225-29.428
				c-13.376-11.771-9.631-76.512-9.631-76.512H187.49h-9.096h-26.217c0,0,3.745,64.741-9.631,76.512
				c-13.376,11.771-49.225,29.428-49.225,29.428s29.234,48.427,56.77,73.987c0,0,7.131,11.056,32.851,10.551
				c25.72,0.505,32.851-10.551,32.851-10.551C243.329,405.172,272.563,356.745,272.563,356.745z"/>
			<path style="opacity:0.44;fill:#EB936D;" d="M152.646,273.562c2.427,1.144,4.833,2.428,7.4,3.228
				c5.743,1.79,11.679,2.828,17.656,3.448c5.562,0.577,11.128,0.878,16.706,0.346c5.314-0.507,10.563-1.701,15.557-3.589
				c1.114-0.421,2.211-0.884,3.296-1.374c-0.191-13.783,0.446-24.816,0.446-24.816h-61.531
				C152.176,250.805,152.752,260.755,152.646,273.562z"/>
			<path style="opacity:0.44;fill:#EB936D;" d="M223.338,327.318c-3.158-2.779-5.361-8.51-6.885-15.645
				c-6.272,2.273-12.278,5.318-17.62,9.327c-6.481,4.865-11.787,11.162-15.271,18.491c-0.135,0.284-0.577,0.193-0.652-0.085
				c-0.945-3.523-2.531-6.835-4.597-9.837c-3.75-5.446-8.972-9.793-14.688-13.053c-4.385-2.501-9.127-4.405-14.034-5.616
				c-1.528,7.492-3.775,13.539-7.046,16.417c-13.376,11.771-49.225,29.428-49.225,29.428s29.234,48.427,56.77,73.987
				c0,0,7.131,11.056,32.851,10.551c25.72,0.505,32.851-10.551,32.851-10.551c27.536-25.56,56.77-73.987,56.77-73.987
				S236.714,339.089,223.338,327.318z"/>
		</g>
		<g>
			<path style="fill:#E4D2B4;" d="M322.669,364.45c-11.644-8.384-82.905-31.206-82.905-31.206l-6.055-2.794l-50.768,27.945
				l-50.768-27.945l-6.055,2.794c0,0-71.261,22.822-82.905,31.206S6.886,439.903,5.488,495.328h80.576h193.755h80.576
				C358.998,439.903,334.313,372.834,322.669,364.45z"/>
			<path style="fill:#C32F1D;" d="M132.873,305.532c0,0,15.836,6.055,33.069,18.165c17.233,12.11,17.233,34.932,17.233,34.932
				c0.233,0.233-37.028-14.206-57.055-25.384C126.119,333.244,129.38,307.162,132.873,305.532z"/>
			<path style="fill:#C32F1D;" d="M233.011,305.532c0,0-15.836,6.055-33.069,18.165c-17.233,12.11-17.233,34.932-17.233,34.932
				c-0.233,0.233,37.028-14.206,57.055-25.384C239.764,333.244,236.504,307.162,233.011,305.532z"/>
			<g>
				<path style="fill:#F6AE46;" d="M92.115,392.146c-0.223-1.381-0.805-2.75-1.788-3.761c-0.616-0.633-1.353-1.074-2.151-1.391
					c1.501-1.772,2.349-4.093,2.457-6.405c0.068-1.461-0.151-2.964-0.72-4.317c-0.599-1.423-1.665-2.599-2.939-3.457
					c-1.325-0.892-2.897-1.467-4.498-1.541c-1.638-0.075-3.105,0.469-4.437,1.394c-0.284,0.197-0.556,0.41-0.824,0.629
					c0.09-0.837,0.111-1.685,0.037-2.548c-0.306-3.572-2.907-6.903-6.468-7.737c-3.742-0.876-7.421,1.46-9.522,4.424
					c-1.053,1.486-1.772,3.23-2.01,5.039c-0.008,0.059-0.011,0.119-0.018,0.179c-0.131-0.083-0.261-0.165-0.394-0.242
					c-1.297-0.754-2.788-1.253-4.303-1.167c-1.481,0.083-2.872,0.666-4.012,1.609c-2.534,2.097-3.903,5.476-3.432,8.739
					c0.358,2.483,1.782,4.682,3.709,6.251c-2.19,1.183-3.87,3.189-4.372,5.696c-0.678,3.381,0.811,6.78,3.185,9.154
					c2.248,2.247,5.589,4.067,8.847,3.272c1.42-0.346,2.675-1.127,3.718-2.153c-0.014,0.824,0.091,1.641,0.411,2.399
					c1.183,2.801,4.508,4.17,7.345,4.507c2.996,0.356,6.341-0.387,8.686-2.346c1.014-0.847,1.932-1.958,2.269-3.259
					c0.319-1.232,0.288-2.529,0.129-3.782c-0.004-0.034-0.012-0.068-0.017-0.102c0.222,0.132,0.447,0.26,0.678,0.377
					c1.258,0.639,2.679,1.087,4.104,0.9c1.556-0.203,2.889-1.221,3.869-2.397C91.518,397.874,92.588,395.068,92.115,392.146z"/>
				<path style="fill:#D4953C;" d="M67.524,370.206c0.019-0.116-0.174-0.049-0.191,0.041c-0.948,4.99-0.422,10.416,1.139,15.231
					c0.063,0.195,0.39,0.02,0.349-0.153C67.626,380.37,66.7,375.302,67.524,370.206z"/>
				<path style="fill:#D4953C;" d="M70.309,371.316c0.028-0.2-0.302-0.086-0.328,0.07c-0.661,3.923-0.409,7.875-0.315,11.83
					c0.009,0.363,0.588,0.167,0.583-0.124C70.185,379.175,69.759,375.214,70.309,371.316z"/>
				<path style="fill:#D4953C;" d="M82.563,377.28c-1.146,0.573-2.175,1.331-3.21,2.08c-0.988,0.715-1.976,1.424-2.924,2.192
					c-1.867,1.514-3.698,3.198-4.945,5.274c-0.226,0.376,0.323,0.407,0.507,0.148c1.371-1.936,3.027-3.638,4.844-5.158
					c0.866-0.724,1.767-1.4,2.669-2.078c1.013-0.763,2.014-1.548,3.14-2.14C82.855,377.487,82.822,377.15,82.563,377.28z"/>
				<path style="fill:#D4953C;" d="M84.195,381.102c-1.833-0.055-3.457,1.324-4.971,2.18c-1.022,0.577-2.018,1.198-3.006,1.832
					c-1.023,0.656-2.086,1.283-3.052,2.021c-0.3,0.229-0.179,0.734,0.236,0.519c1.956-1.011,3.716-2.419,5.608-3.549
					c0.775-0.463,1.547-0.928,2.317-1.4c0.81-0.497,1.703-1.048,2.682-1.06C84.308,381.641,84.606,381.115,84.195,381.102z"/>
				<path style="fill:#D4953C;" d="M66.638,385.327c-0.52-0.93-1.389-1.662-2.194-2.348c-0.865-0.737-1.785-1.402-2.733-2.029
					c-0.997-0.66-1.989-1.34-3.014-1.956c-0.452-0.272-0.91-0.55-1.391-0.767c-0.588-0.266-1.204-0.442-1.724-0.84
					c-0.055-0.042-0.16,0.054-0.101,0.106c0.395,0.351,0.849,0.587,1.31,0.839c0.519,0.284,1.014,0.612,1.5,0.95
					c0.977,0.681,1.94,1.382,2.907,2.076c0.871,0.625,1.726,1.279,2.534,1.984c0.86,0.75,1.583,1.646,2.467,2.362
					C66.398,385.864,66.76,385.546,66.638,385.327z"/>
				<path style="fill:#D4953C;" d="M66.644,386.174c-1.862-1.409-4.061-2.387-6.205-3.284c-2.212-0.925-4.437-2.076-6.79-2.587
					c-0.146-0.032-0.355,0.223-0.167,0.269c2.269,0.56,4.379,1.737,6.497,2.701c2.159,0.982,4.176,2.147,6.174,3.418
					C66.431,386.867,66.951,386.406,66.644,386.174z"/>
				<path style="fill:#D4953C;" d="M67.169,388.53c-5.545,0.509-10.143,4.197-14.759,6.943c-0.065,0.039-0.031,0.137,0.045,0.098
					c4.753-2.411,9.182-5.615,14.578-6.377C67.36,389.148,67.63,388.488,67.169,388.53z"/>
				<path style="fill:#D4953C;" d="M66.036,390.211c-4.24,2.544-7.881,5.981-12.221,8.373c-0.156,0.086-0.134,0.338,0.061,0.238
					c4.431-2.281,8.311-5.455,12.509-8.114C66.827,390.428,66.475,389.948,66.036,390.211z"/>
				<path style="fill:#D4953C;" d="M68.506,391.139c0.043-0.416-0.6-0.159-0.656,0.139c-0.487,2.59-0.642,5.246-0.628,7.878
					c0.013,2.583,0.298,5.155,0.894,7.67c0.042,0.178,0.34,0.018,0.313-0.137C67.522,401.514,67.976,396.323,68.506,391.139z"/>
				<path style="fill:#D4953C;" d="M72.799,405.444c-1.38-4.401,0.347-9.415-2.154-13.518c-0.195-0.32-0.794,0.113-0.626,0.439
					c2.132,4.142,0.781,8.987,2.342,13.272C72.449,405.876,72.867,405.66,72.799,405.444z"/>
				<path style="fill:#D4953C;" d="M86.696,393.374c-1.519-2.118-3.952-3.245-6.408-3.901c-2.49-0.665-5.137-1.034-7.71-1.154
					c-0.236-0.011-0.597,0.459-0.252,0.524c2.46,0.462,4.968,0.52,7.409,1.125c2.456,0.608,4.919,1.66,6.456,3.76
					C86.369,393.969,86.87,393.617,86.696,393.374z"/>
				<path style="fill:#D4953C;" d="M84.267,396.843c-0.463-0.244-0.755-0.671-1.12-1.032c-0.41-0.406-0.868-0.764-1.346-1.085
					c-0.99-0.665-2.081-1.169-3.168-1.654c-1.147-0.512-2.314-0.977-3.466-1.478c-1.179-0.512-2.309-1.122-3.502-1.601
					c-0.176-0.071-0.445,0.204-0.274,0.352c0.917,0.792,2.034,1.267,3.135,1.75c1.181,0.518,2.382,0.989,3.572,1.487
					c1.144,0.478,2.292,0.978,3.333,1.658c0.509,0.332,0.988,0.705,1.42,1.133c0.342,0.339,0.677,0.654,1.129,0.839
					C84.156,397.282,84.475,396.953,84.267,396.843z"/>
				<path style="fill:#418258;" d="M76.676,383.79c-1.031-2.213-3.361-3.715-5.772-3.942c-2.609-0.246-5.013,1.212-6.934,2.82
					c-0.208,0.174-0.457,0.49-0.263,0.767c0.005,0.007,0.012,0.011,0.017,0.018c-0.218,0.276-0.423,0.563-0.597,0.873
					c-1.836,3.276-0.878,8.067,2.494,9.947c2.803,1.562,6.424,0.879,8.849-1.09c1.233-1.001,2.22-2.329,2.65-3.872
					C77.618,387.529,77.457,385.466,76.676,383.79z"/>
			</g>
			<g>
				<path style="fill:#F6AE46;" d="M236.328,398.441c0.351-1.202,0.409-2.532,0.003-3.728c-0.254-0.749-0.68-1.389-1.203-1.953
					c1.895-0.855,3.474-2.404,4.451-4.231c0.617-1.155,1.019-2.454,1.08-3.766c0.064-1.381-0.346-2.742-1.045-3.926
					c-0.727-1.231-1.776-2.301-3.042-2.977c-1.295-0.692-2.69-0.816-4.123-0.582c-0.305,0.05-0.607,0.117-0.908,0.191
					c0.395-0.641,0.739-1.32,1.011-2.046c1.128-3.005,0.308-6.699-2.249-8.743c-2.688-2.149-6.56-1.677-9.4-0.09
					c-1.423,0.796-2.676,1.929-3.565,3.299c-0.029,0.045-0.055,0.092-0.083,0.138c-0.074-0.117-0.147-0.234-0.225-0.347
					c-0.758-1.109-1.771-2.086-3.029-2.6c-1.229-0.503-2.578-0.568-3.862-0.244c-2.855,0.719-5.263,2.924-6.138,5.742
					c-0.666,2.145-0.362,4.47,0.591,6.481c-2.226,0.113-4.356,1.087-5.727,2.921c-1.85,2.472-1.955,5.792-0.95,8.625
					c0.951,2.682,2.952,5.439,5.891,6.051c1.281,0.267,2.596,0.119,3.834-0.309c-0.329,0.66-0.558,1.361-0.591,2.097
					c-0.122,2.719,2.038,5.106,4.201,6.471c2.284,1.441,5.274,2.128,7.924,1.448c1.146-0.294,2.315-0.839,3.089-1.761
					c0.732-0.872,1.206-1.933,1.56-3.007c0.01-0.029,0.016-0.06,0.026-0.089c0.129,0.193,0.261,0.382,0.403,0.566
					c0.771,1.001,1.747,1.91,2.971,2.308c1.336,0.435,2.805,0.126,4.05-0.448C233.64,402.84,235.585,400.984,236.328,398.441z"/>
				<path style="fill:#D4953C;" d="M224.9,371.24c0.06-0.087-0.122-0.107-0.17-0.041c-2.687,3.668-4.352,8.257-4.943,12.749
					c-0.024,0.182,0.308,0.167,0.341,0.011C221.068,379.494,222.272,375.041,224.9,371.24z"/>
				<path style="fill:#D4953C;" d="M226.723,373.209c0.1-0.151-0.211-0.186-0.292-0.07c-2.045,2.916-3.362,6.207-4.809,9.44
					c-0.133,0.297,0.411,0.362,0.519,0.125C223.597,379.514,224.778,376.148,226.723,373.209z"/>
				<path style="fill:#D4953C;" d="M234.331,382.748c-1.147,0.022-2.27,0.238-3.395,0.445c-1.074,0.197-2.146,0.39-3.207,0.646
					c-2.092,0.505-4.22,1.161-6.027,2.359c-0.327,0.217,0.105,0.453,0.353,0.315c1.853-1.037,3.847-1.775,5.901-2.304
					c0.979-0.252,1.967-0.451,2.957-0.652c1.112-0.227,2.224-0.476,3.362-0.521C234.488,383.027,234.591,382.743,234.331,382.748z"
					/>
				<path style="fill:#D4953C;" d="M234.179,386.465c-1.46-0.75-3.304-0.26-4.857-0.152c-1.048,0.073-2.092,0.191-3.135,0.323
					c-1.08,0.137-2.18,0.234-3.245,0.458c-0.331,0.07-0.427,0.524-0.009,0.51c1.97-0.064,3.935-0.524,5.899-0.709
					c0.805-0.076,1.607-0.155,2.412-0.24c0.846-0.09,1.78-0.192,2.576,0.176C234.063,386.944,234.506,386.633,234.179,386.465z"/>
				<path style="fill:#D4953C;" d="M218.362,383.12c-0.062-0.952-0.483-1.878-0.869-2.742c-0.415-0.929-0.903-1.82-1.427-2.692
					c-0.552-0.918-1.092-1.849-1.683-2.741c-0.261-0.394-0.524-0.794-0.829-1.156c-0.373-0.441-0.803-0.821-1.07-1.343
					c-0.028-0.055-0.15-0.018-0.122,0.047c0.184,0.436,0.46,0.802,0.735,1.182c0.31,0.43,0.584,0.885,0.846,1.345
					c0.527,0.926,1.036,1.864,1.551,2.798c0.463,0.84,0.902,1.698,1.284,2.579c0.406,0.937,0.646,1.941,1.085,2.859
					C217.961,383.462,218.376,383.344,218.362,383.12z"/>
				<path style="fill:#D4953C;" d="M218.041,383.807c-0.962-1.856-2.363-3.493-3.751-5.043c-1.431-1.599-2.787-3.386-4.492-4.705
					c-0.106-0.082-0.372,0.043-0.239,0.153c1.618,1.326,2.871,3.09,4.211,4.684c1.367,1.625,2.549,3.343,3.674,5.14
					C217.602,384.285,218.199,384.113,218.041,383.807z"/>
				<path style="fill:#D4953C;" d="M217.558,385.914c-4.678-1.723-9.814-0.513-14.602-0.071c-0.067,0.006-0.078,0.099-0.002,0.097
					c4.77-0.119,9.583-1.003,14.238,0.458C217.475,386.487,217.947,386.057,217.558,385.914z"/>
				<path style="fill:#D4953C;" d="M215.995,386.836c-4.407,0.423-8.673,1.8-13.101,2.062c-0.159,0.009-0.238,0.222-0.043,0.216
					c4.459-0.138,8.817-1.21,13.234-1.742C216.551,387.316,216.451,386.792,215.995,386.836z"/>
				<path style="fill:#D4953C;" d="M217.634,388.537c0.195-0.32-0.424-0.36-0.584-0.14c-1.39,1.906-2.538,3.993-3.541,6.126
					c-0.984,2.093-1.744,4.281-2.231,6.544c-0.034,0.16,0.268,0.146,0.306,0.01C212.844,396.544,215.21,392.523,217.634,388.537z"/>
				<path style="fill:#D4953C;" d="M215.596,401.753c0.579-4.088,3.905-7.476,3.464-11.756c-0.034-0.334-0.685-0.215-0.675,0.114
					c0.128,4.168-2.829,7.564-3.217,11.629C215.147,401.967,215.568,401.953,215.596,401.753z"/>
				<path style="fill:#D4953C;" d="M231.475,397.347c-0.412-2.297-1.945-4.144-3.677-5.62c-1.756-1.497-3.754-2.814-5.788-3.901
					c-0.187-0.1-0.659,0.141-0.405,0.327c1.811,1.321,3.815,2.333,5.556,3.762c1.751,1.437,3.337,3.235,3.77,5.524
					C230.982,397.702,231.523,397.611,231.475,397.347z"/>
				<path style="fill:#D4953C;" d="M228.177,399.216c-0.28-0.376-0.352-0.833-0.508-1.265c-0.175-0.486-0.407-0.951-0.67-1.395
					c-0.544-0.919-1.232-1.746-1.923-2.556c-0.73-0.856-1.494-1.681-2.233-2.529c-0.755-0.868-1.434-1.796-2.214-2.643
					c-0.115-0.125-0.438-0.006-0.357,0.179c0.436,0.993,1.156,1.807,1.86,2.621c0.756,0.873,1.545,1.716,2.315,2.577
					c0.74,0.827,1.476,1.673,2.056,2.623c0.284,0.464,0.527,0.95,0.712,1.463c0.146,0.406,0.296,0.789,0.59,1.113
					C227.918,399.527,228.303,399.384,228.177,399.216z"/>
				<path style="fill:#418258;" d="M227.067,385.743c0.019-2.186-1.286-4.296-3.148-5.408c-2.015-1.203-4.519-0.951-6.69-0.391
					c-0.235,0.061-0.558,0.22-0.507,0.519c0.001,0.007,0.005,0.013,0.007,0.021c-0.283,0.14-0.559,0.293-0.818,0.476
					c-2.745,1.942-3.816,6.182-1.814,9c1.664,2.342,4.854,3.184,7.572,2.526c1.382-0.334,2.691-1.028,3.633-2.109
					C226.389,389.128,227.053,387.398,227.067,385.743z"/>
			</g>
			<g>
				<path style="fill:#F6AE46;" d="M167.952,464.304c0.32-1.094,0.372-2.305,0.003-3.393c-0.231-0.681-0.619-1.264-1.095-1.777
					c1.725-0.778,3.162-2.187,4.051-3.85c0.562-1.051,0.928-2.233,0.983-3.427c0.058-1.256-0.314-2.495-0.951-3.572
					c-0.662-1.121-1.616-2.094-2.768-2.709c-1.178-0.629-2.448-0.742-3.752-0.529c-0.278,0.045-0.553,0.106-0.827,0.174
					c0.36-0.584,0.672-1.201,0.92-1.861c1.026-2.735,0.28-6.096-2.046-7.956c-2.446-1.955-5.969-1.526-8.553-0.082
					c-1.295,0.724-2.435,1.755-3.244,3.002c-0.027,0.041-0.05,0.084-0.076,0.125c-0.067-0.107-0.134-0.213-0.205-0.316
					c-0.69-1.009-1.612-1.898-2.756-2.366c-1.118-0.458-2.346-0.517-3.515-0.222c-2.598,0.655-4.789,2.66-5.586,5.225
					c-0.606,1.952-0.329,4.068,0.538,5.897c-2.025,0.103-3.964,0.99-5.212,2.658c-1.683,2.25-1.779,5.271-0.865,7.849
					c0.866,2.44,2.686,4.949,5.361,5.506c1.165,0.243,2.362,0.108,3.489-0.281c-0.299,0.601-0.508,1.238-0.538,1.908
					c-0.111,2.475,1.854,4.647,3.823,5.888c2.079,1.311,4.799,1.937,7.21,1.318c1.042-0.268,2.107-0.763,2.811-1.602
					c0.666-0.794,1.098-1.759,1.42-2.737c0.009-0.027,0.015-0.055,0.023-0.081c0.117,0.175,0.238,0.348,0.367,0.515
					c0.702,0.911,1.59,1.738,2.703,2.1c1.216,0.395,2.553,0.114,3.686-0.407C165.506,468.308,167.276,466.619,167.952,464.304z"/>
				<path style="fill:#D4953C;" d="M157.552,439.552c0.055-0.079-0.111-0.097-0.155-0.037c-2.445,3.338-3.96,7.513-4.498,11.601
					c-0.022,0.165,0.28,0.152,0.31,0.01C154.066,447.064,155.161,443.011,157.552,439.552z"/>
				<path style="fill:#D4953C;" d="M159.211,441.344c0.091-0.138-0.192-0.169-0.266-0.064c-1.861,2.654-3.06,5.649-4.376,8.59
					c-0.121,0.27,0.374,0.329,0.472,0.113C156.367,447.081,157.441,444.018,159.211,441.344z"/>
				<path style="fill:#D4953C;" d="M166.134,450.024c-1.044,0.02-2.066,0.217-3.089,0.405c-0.977,0.18-1.953,0.355-2.919,0.588
					c-1.903,0.459-3.84,1.057-5.485,2.147c-0.298,0.197,0.095,0.413,0.321,0.286c1.687-0.943,3.501-1.615,5.369-2.096
					c0.891-0.229,1.79-0.41,2.691-0.593c1.012-0.206,2.023-0.433,3.059-0.474C166.277,450.278,166.371,450.019,166.134,450.024z"/>
				<path style="fill:#D4953C;" d="M165.996,453.407c-1.329-0.682-3.007-0.237-4.42-0.138c-0.954,0.067-1.904,0.174-2.852,0.294
					c-0.982,0.124-1.984,0.213-2.953,0.417c-0.301,0.063-0.389,0.477-0.008,0.465c1.793-0.059,3.581-0.477,5.367-0.645
					c0.733-0.069,1.463-0.141,2.195-0.218c0.77-0.081,1.62-0.174,2.344,0.16C165.89,453.842,166.294,453.56,165.996,453.407z"/>
				<path style="fill:#D4953C;" d="M151.603,450.363c-0.056-0.866-0.439-1.709-0.791-2.495c-0.378-0.845-0.822-1.657-1.299-2.45
					c-0.502-0.835-0.993-1.682-1.531-2.495c-0.237-0.358-0.477-0.723-0.754-1.052c-0.339-0.402-0.731-0.747-0.973-1.222
					c-0.026-0.05-0.136-0.016-0.111,0.042c0.168,0.396,0.419,0.729,0.669,1.076c0.283,0.391,0.532,0.805,0.77,1.224
					c0.48,0.843,0.943,1.696,1.411,2.546c0.422,0.765,0.821,1.545,1.169,2.347c0.37,0.853,0.588,1.766,0.987,2.602
					C151.238,450.674,151.616,450.566,151.603,450.363z"/>
				<path style="fill:#D4953C;" d="M151.31,450.988c-0.876-1.689-2.15-3.178-3.413-4.589c-1.303-1.455-2.536-3.082-4.088-4.282
					c-0.097-0.075-0.339,0.039-0.217,0.139c1.472,1.207,2.612,2.812,3.832,4.262c1.243,1.478,2.319,3.042,3.344,4.677
					C150.911,451.423,151.455,451.266,151.31,450.988z"/>
				<path style="fill:#D4953C;" d="M150.871,452.905c-4.257-1.568-8.93-0.467-13.288-0.064c-0.061,0.006-0.071,0.09-0.002,0.088
					c4.34-0.108,8.721-0.913,12.956,0.417C150.795,453.427,151.225,453.035,150.871,452.905z"/>
				<path style="fill:#D4953C;" d="M149.449,453.744c-4.01,0.385-7.892,1.638-11.921,1.876c-0.145,0.009-0.217,0.202-0.039,0.197
					c4.058-0.125,8.024-1.1,12.042-1.585C149.955,454.181,149.864,453.704,149.449,453.744z"/>
				<path style="fill:#D4953C;" d="M150.94,455.292c0.177-0.291-0.385-0.328-0.531-0.128c-1.265,1.734-2.31,3.633-3.222,5.574
					c-0.895,1.904-1.587,3.896-2.03,5.955c-0.031,0.146,0.244,0.133,0.278,0.009C146.582,462.578,148.734,458.919,150.94,455.292z"
					/>
				<path style="fill:#D4953C;" d="M149.086,467.318c0.527-3.72,3.554-6.803,3.152-10.697c-0.031-0.304-0.623-0.195-0.614,0.103
					c0.117,3.793-2.574,6.883-2.927,10.582C148.677,467.513,149.061,467.5,149.086,467.318z"/>
				<path style="fill:#D4953C;" d="M163.536,463.309c-0.375-2.09-1.77-3.771-3.346-5.114c-1.598-1.362-3.416-2.561-5.266-3.55
					c-0.17-0.091-0.6,0.128-0.368,0.297c1.647,1.202,3.472,2.123,5.055,3.423c1.593,1.308,3.036,2.944,3.431,5.027
					C163.087,463.632,163.579,463.549,163.536,463.309z"/>
				<path style="fill:#D4953C;" d="M160.534,465.009c-0.255-0.342-0.32-0.758-0.462-1.151c-0.159-0.442-0.371-0.866-0.61-1.27
					c-0.495-0.836-1.121-1.589-1.75-2.326c-0.664-0.779-1.36-1.53-2.032-2.301c-0.688-0.79-1.305-1.634-2.014-2.405
					c-0.104-0.114-0.399-0.006-0.325,0.163c0.397,0.904,1.052,1.644,1.693,2.385c0.687,0.795,1.406,1.562,2.106,2.345
					c0.674,0.753,1.343,1.522,1.871,2.387c0.258,0.423,0.48,0.865,0.648,1.331c0.133,0.369,0.269,0.718,0.537,1.013
					C160.299,465.293,160.648,465.163,160.534,465.009z"/>
				<path style="fill:#418258;" d="M159.524,452.75c0.017-1.989-1.171-3.91-2.864-4.921c-1.833-1.095-4.112-0.865-6.088-0.355
					c-0.214,0.055-0.507,0.2-0.462,0.472c0.001,0.007,0.005,0.012,0.006,0.019c-0.257,0.127-0.508,0.266-0.745,0.433
					c-2.498,1.767-3.472,5.626-1.65,8.19c1.514,2.131,4.417,2.897,6.891,2.299c1.257-0.304,2.449-0.935,3.306-1.919
					C158.907,455.83,159.511,454.255,159.524,452.75z"/>
			</g>
			<g>
				<path style="fill:#72814C;" d="M47.25,416.44c-0.947,1.072-1.727,2.301-2.345,3.588c-2.092,4.355-2.819,9.519-2.278,14.306
					c0.565,4.992,2.983,9.37,6.261,13.072c1.256-2.271,2.603-4.501,3.375-6.997c0.778-2.517,1.203-5.257,1.267-7.89
					c0.057-2.337-0.152-4.765-0.855-7.006c-0.441-1.403-1.072-2.766-1.724-4.082c-0.733-1.48-1.528-3.039-2.686-4.238
					C47.98,416.898,47.643,416.591,47.25,416.44z"/>
				<path style="fill:#72814C;" d="M22.099,432.42c2.213,2.556,5.07,4.607,8.082,6.117c3.049,1.529,6.558,2.741,10.018,2.516
					c-0.26-0.811-0.977-1.414-1.535-2.036c-0.037-0.041-0.074-0.081-0.111-0.122c-1.892-2.409-4.045-4.63-6.635-6.286
					c-2.488-1.591-5.462-3.003-8.411-3.393c-0.709-0.094-1.429-0.134-2.141-0.055c-0.387,0.043-0.871,0.082-1.261,0.25
					C20.59,430.513,21.319,431.52,22.099,432.42z"/>
				<path style="fill:#72814C;" d="M29.495,410.068c-0.618,1.133-1.01,2.391-1.192,3.678c-0.536,3.785,0.509,7.639,2.439,10.889
					c1.797,3.027,4.408,6.025,7.673,7.559c0.045-0.104,0.075-0.205,0.08-0.278c0.15-1.978-0.594-4.013-1.039-5.918
					c-0.525-2.247-1.057-4.501-1.91-6.651c-0.855-2.154-2.004-4.207-3.417-6.046c-0.824-1.072-1.549-2.38-2.62-3.224
					C29.504,410.073,29.5,410.071,29.495,410.068z"/>
			</g>
			<g>
				<path style="fill:#72814C;" d="M125.599,421.361c-1.179-0.344-2.419-0.501-3.644-0.511c-4.148-0.034-8.426,1.288-11.946,3.458
					c-3.672,2.263-6.189,5.741-7.867,9.641c2.223,0.146,4.448,0.378,6.669,0.065c2.24-0.315,4.524-0.987,6.593-1.898
					c1.837-0.81,3.647-1.859,5.13-3.224c0.929-0.855,1.757-1.844,2.541-2.831c0.882-1.111,1.802-2.298,2.311-3.636
					C125.509,422.095,125.625,421.721,125.599,421.361z"/>
				<path style="fill:#72814C;" d="M103.993,407.661c-1.177,2.653-1.726,5.622-1.799,8.514c-0.074,2.927,0.267,6.096,1.707,8.703
					c0.535-0.498,0.742-1.276,1.021-1.937c0.018-0.043,0.036-0.087,0.054-0.131c1.18-2.35,2.119-4.835,2.459-7.452
					c0.326-2.515,0.337-5.341-0.438-7.775c-0.186-0.585-0.418-1.159-0.739-1.684c-0.175-0.285-0.382-0.647-0.655-0.888
					C104.922,405.791,104.407,406.726,103.993,407.661z"/>
				<path style="fill:#72814C;" d="M124.061,405.238c-1.106-0.066-2.226,0.089-3.293,0.418c-3.136,0.967-5.748,3.187-7.568,5.874
					c-1.695,2.502-3.07,5.626-3.068,8.723c0.097-0.003,0.187-0.017,0.245-0.039c1.592-0.606,2.901-1.928,4.218-2.97
					c1.554-1.229,3.11-2.466,4.469-3.914c1.361-1.451,2.536-3.094,3.448-4.864c0.532-1.032,1.283-2.073,1.547-3.214
					C124.06,405.247,124.06,405.243,124.061,405.238z"/>
			</g>
			<g>
				<path style="fill:#72814C;" d="M241.388,461.771c0.182,1.419,0.592,2.815,1.153,4.128c1.896,4.444,5.301,8.394,9.258,11.141
					c4.127,2.865,9.013,3.932,13.957,3.906c-0.88-2.441-1.669-4.924-3.038-7.149c-1.38-2.245-3.161-4.37-5.099-6.153
					c-1.72-1.583-3.684-3.027-5.832-3.974c-1.346-0.594-2.787-1.017-4.206-1.394c-1.596-0.424-3.293-0.854-4.958-0.773
					C242.214,461.523,241.76,461.574,241.388,461.771z"/>
				<path style="fill:#72814C;" d="M236.831,491.218c3.381,0.02,6.806-0.777,9.927-2.047c3.159-1.285,6.383-3.126,8.495-5.877
					c-0.781-0.339-1.708-0.197-2.544-0.187c-0.055,0.001-0.11,0.002-0.165,0.003c-3.058-0.165-6.148-0.009-9.1,0.848
					c-2.836,0.823-5.858,2.129-8.095,4.09c-0.538,0.471-1.042,0.986-1.452,1.574c-0.223,0.319-0.512,0.71-0.643,1.113
					C234.402,491.097,235.64,491.211,236.831,491.218z"/>
				<path style="fill:#72814C;" d="M224.894,470.924c0.445,1.212,1.133,2.335,1.981,3.32c2.493,2.898,6.081,4.651,9.798,5.342
					c3.461,0.643,7.436,0.656,10.742-0.789c-0.049-0.103-0.105-0.191-0.157-0.243c-1.389-1.417-3.41-2.198-5.136-3.119
					c-2.036-1.086-4.082-2.171-6.261-2.946c-2.184-0.777-4.485-1.266-6.799-1.415c-1.35-0.087-2.811-0.404-4.152-0.154
					C224.904,470.921,224.9,470.923,224.894,470.924z"/>
			</g>
			<g>
				<path style="fill:#72814C;" d="M338.468,428.095c-1.402-0.288-2.855-0.353-4.279-0.25c-4.819,0.351-9.661,2.29-13.543,5.14
					c-4.05,2.973-6.645,7.249-8.225,11.934c2.595-0.04,5.199,0.019,7.748-0.553c2.571-0.577,5.159-1.572,7.475-2.825
					c2.056-1.113,4.059-2.502,5.652-4.227c0.998-1.08,1.866-2.306,2.683-3.526c0.919-1.372,1.876-2.837,2.34-4.439
					C338.434,428.956,338.533,428.51,338.468,428.095z"/>
				<path style="fill:#72814C;" d="M312.094,414.226c-1.116,3.191-1.474,6.69-1.286,10.054c0.19,3.405,0.884,7.052,2.801,9.942
					c0.574-0.629,0.741-1.551,1.003-2.345c0.017-0.052,0.034-0.105,0.051-0.157c1.148-2.839,2.004-5.813,2.152-8.883
					c0.142-2.95-0.112-6.232-1.241-8.984c-0.271-0.661-0.595-1.306-1.017-1.885c-0.23-0.314-0.505-0.715-0.844-0.97
					C312.997,411.968,312.487,413.102,312.094,414.226z"/>
				<path style="fill:#72814C;" d="M335.164,409.523c-1.291,0.027-2.576,0.313-3.784,0.796c-3.55,1.418-6.373,4.242-8.233,7.533
					c-1.732,3.065-3.034,6.821-2.74,10.416c0.113-0.013,0.215-0.037,0.281-0.069c1.791-0.853,3.186-2.512,4.617-3.846
					c1.688-1.573,3.379-3.156,4.819-4.966c1.444-1.813,2.653-3.831,3.545-5.971c0.52-1.249,1.294-2.527,1.494-3.877
					C335.164,409.533,335.163,409.529,335.164,409.523z"/>
			</g>
			<g>
				<path style="fill:#72814C;" d="M107.774,344.454c-0.171,1.421-0.116,2.875,0.105,4.285c0.748,4.773,3.08,9.438,6.242,13.072
					c3.298,3.79,7.773,6.023,12.573,7.211c-0.255-2.583-0.41-5.183-1.191-7.676c-0.787-2.515-1.993-5.012-3.433-7.216
					c-1.279-1.957-2.829-3.838-4.679-5.283c-1.159-0.906-2.452-1.669-3.735-2.383c-1.444-0.803-2.983-1.635-4.617-1.966
					C108.635,344.417,108.183,344.355,107.774,344.454z"/>
				<path style="fill:#72814C;" d="M96.132,371.884c3.273,0.848,6.789,0.916,10.126,0.451c3.378-0.471,6.955-1.464,9.677-3.613
					c-0.674-0.52-1.607-0.61-2.42-0.806c-0.054-0.013-0.107-0.025-0.16-0.038c-2.924-0.91-5.958-1.517-9.03-1.411
					c-2.952,0.102-6.202,0.627-8.851,1.979c-0.637,0.325-1.252,0.7-1.794,1.169c-0.294,0.255-0.671,0.562-0.896,0.922
					C93.807,371.17,94.98,371.585,96.132,371.884z"/>
				<path style="fill:#72814C;" d="M89.539,349.281c0.134,1.284,0.525,2.541,1.106,3.705c1.706,3.421,4.754,6.001,8.188,7.582
					c3.197,1.473,7.048,2.46,10.607,1.87c-0.022-0.111-0.055-0.211-0.092-0.274c-0.999-1.714-2.767-2.968-4.214-4.284
					c-1.707-1.552-3.424-3.106-5.347-4.392c-1.926-1.289-4.038-2.327-6.244-3.039c-1.287-0.415-2.626-1.081-3.987-1.168
					C89.549,349.281,89.545,349.282,89.539,349.281z"/>
			</g>
			<g>
				<path style="fill:#72814C;" d="M244.696,338.612c1.137,0.603,2.183,1.391,3.111,2.279c3.141,3.005,5.389,7.125,6.449,11.327
					c1.105,4.384,0.455,8.836-1.134,12.992c-1.777-1.515-3.618-2.966-5.058-4.824c-1.453-1.874-2.678-4.047-3.566-6.244
					c-0.788-1.95-1.381-4.062-1.498-6.171c-0.073-1.322,0.027-2.669,0.159-3.983c0.149-1.479,0.325-3.043,0.92-4.42
					C244.226,339.229,244.413,338.863,244.696,338.612z"/>
				<path style="fill:#72814C;" d="M269.291,354.183c-1.055,2.853-2.811,5.485-4.87,7.712c-2.084,2.253-4.655,4.385-7.641,5.291
					c-0.038-0.765,0.375-1.5,0.648-2.201c0.018-0.046,0.037-0.092,0.055-0.138c0.831-2.628,1.941-5.181,3.598-7.395
					c1.592-2.128,3.649-4.259,6.01-5.521c0.567-0.303,1.161-0.565,1.786-0.725c0.339-0.086,0.76-0.206,1.141-0.189
					C269.959,352.099,269.663,353.178,269.291,354.183z"/>
			</g>
			<g>
				<path style="fill:#72814C;" d="M161.021,373.043c-0.54,1.325-0.871,2.742-1.03,4.16c-0.538,4.802,0.48,9.917,2.571,14.256
					c2.181,4.526,5.908,7.86,10.224,10.273c0.436-2.558,0.972-5.107,0.877-7.718c-0.096-2.633-0.6-5.36-1.407-7.866
					c-0.717-2.225-1.716-4.448-3.119-6.331c-0.879-1.179-1.925-2.257-2.974-3.284c-1.181-1.156-2.445-2.365-3.934-3.114
					C161.861,373.234,161.442,373.055,161.021,373.043z"/>
				<path style="fill:#72814C;" d="M151.138,403.848c2.933,1.682,6.306,2.675,9.648,3.107c3.382,0.437,7.095,0.423,10.287-0.932
					c-0.513-0.68-1.389-1.012-2.121-1.416c-0.048-0.026-0.097-0.052-0.145-0.079c-2.581-1.65-5.347-3.036-8.337-3.744
					c-2.874-0.68-6.147-1.032-9.06-0.427c-0.7,0.145-1.393,0.345-2.039,0.654c-0.351,0.168-0.795,0.365-1.108,0.652
					C149.084,402.546,150.105,403.255,151.138,403.848z"/>
			</g>
			<g>
				<path style="fill:#72814C;" d="M203.723,429.912c0.54,1.325,0.871,2.742,1.03,4.161c0.538,4.801-0.48,9.917-2.571,14.256
					c-2.181,4.526-5.908,7.861-10.224,10.273c-0.436-2.558-0.972-5.107-0.877-7.718c0.096-2.633,0.6-5.36,1.407-7.866
					c0.717-2.225,1.716-4.449,3.119-6.331c0.879-1.179,1.925-2.257,2.974-3.284c1.181-1.155,2.445-2.364,3.935-3.114
					C202.882,430.103,203.302,429.925,203.723,429.912z"/>
				<path style="fill:#72814C;" d="M221.95,454.227c-2.933,1.682-6.306,2.675-9.648,3.107c-3.383,0.437-7.095,0.423-10.287-0.932
					c0.513-0.68,1.389-1.012,2.121-1.416c0.048-0.026,0.097-0.052,0.145-0.079c2.581-1.649,5.347-3.036,8.338-3.744
					c2.874-0.68,6.147-1.032,9.06-0.427c0.7,0.146,1.393,0.345,2.039,0.654c0.351,0.168,0.795,0.365,1.108,0.652
					C224.004,452.925,222.983,453.634,221.95,454.227z"/>
			</g>
			<g>
				<path style="fill:#72814C;" d="M76.377,442.813c-1.112-1.305-2.444-2.357-3.977-3.124c-0.521-0.261-1.178-0.668-1.789-0.513
					c-0.623,0.158-0.909,0.783-1.024,1.359c-0.39,1.952-0.143,4.139,0.167,6.085c0.321,2.013,0.844,4.015,1.586,5.915
					c0.856,2.19,2.164,4.165,3.766,5.88c0.782,0.837,1.631,1.617,2.511,2.351c0.146,0.121,0.292,0.241,0.439,0.358
					c0.912,1.453,2.385,2.507,3.545,3.752c0.185,0.199,0.531-0.105,0.572-0.291c0.19-0.859,0.097-1.727,0-2.592
					c-0.123-1.096-0.18-2.198-0.26-3.298c-0.162-2.204-0.419-4.379-0.973-6.522C80.073,448.817,78.64,445.468,76.377,442.813z"/>
				<path style="fill:#72814C;" d="M80.861,467.044c-0.374-0.75-0.812-1.428-1.366-2.055c-0.132-0.15-0.314-0.126-0.477-0.02
					c-2.184-2.607-4.588-5.046-7.621-6.664c-3.784-2.018-8.267-2.678-12.48-3.135c-1.543-0.167-3.794-0.46-5.044,0.706
					c-0.199,0.186-0.41,0.502-0.253,0.782c3.961,7.066,11.819,12.63,20.065,12.754c2.344,0.035,4.709-0.379,6.789-1.494
					C80.763,467.763,81.027,467.376,80.861,467.044z"/>
				<path style="fill:#72814C;" d="M127.884,464.396c-1.667-0.524-3.435-0.389-5.155-0.332c-2.098,0.07-4.193,0.233-6.268,0.553
					c-3.904,0.602-7.75,1.793-11.171,3.795c-1.571,0.919-3.053,1.993-4.357,3.262c-0.075-0.022-0.166-0.026-0.278-0.007
					c-0.163,0.029-0.297,0.08-0.451,0.139c-0.343,0.131-0.622,0.652-0.441,0.997c1.688,3.22,6.122,3.622,9.341,3.464
					c1.973-0.097,3.889-0.456,5.733-1.18c2.558-1.005,4.854-2.594,7.005-4.281c1.278-1.002,2.51-2.058,3.724-3.136
					c0.891-0.79,2.116-1.527,2.536-2.694C128.173,464.774,128.118,464.469,127.884,464.396z"/>
				<g>
					<path style="fill:#F6AE46;" d="M105.575,459.581c-1.304-0.27-2.59-0.171-3.815,0.198c0.469-1.885,0.562-3.936-0.109-5.766
						c-0.739-2.015-2.736-3.62-4.957-3.492c-2.691,0.156-4.989,2.561-6.117,4.845c-0.252,0.51-0.442,1.039-0.583,1.578
						c-0.508-0.609-1.101-1.15-1.743-1.623c-2.458-1.808-5.393-2.441-8.333-1.551c-2.672,0.81-5.287,2.893-5.864,5.746
						c-0.518,2.559,0.468,5.521,1.822,7.688c0.1,0.16,0.21,0.319,0.326,0.476c-1.25,0.613-2.336,1.567-3.019,2.796
						c-0.547,0.984-0.878,2.151-0.786,3.28c0.107,1.315,0.84,2.442,1.8,3.31c1.58,1.427,3.558,2.047,5.63,1.908
						c-0.77,1.367-1.342,3.025-1.007,4.588c0.29,1.354,1.242,2.643,2.218,3.59c4.054,3.934,11.135,3.553,14.838-0.658
						c1.084-1.232,1.803-2.773,1.888-4.411c0.746,0.576,1.581,1.014,2.44,1.243c2.521,0.674,5.197-0.308,7.008-2.107
						c3.341-3.319,3.716-9.319,0.473-12.669c1.278-1.317,2.141-3.169,1.958-4.989C109.428,461.412,107.576,459.996,105.575,459.581z
						"/>
					<path style="fill:#418258;" d="M94.957,463.286c-0.673-0.347-1.342-0.433-1.99-0.345c-1.068-0.289-2.24-0.238-3.282,0.118
						c-1.716,0.587-3.116,1.934-3.959,3.519c-0.826,1.552-1.176,3.419-0.604,5.117c0.449,1.33,1.406,2.422,2.659,3.049
						c4.409,2.206,10.694-1.955,10.261-6.874C97.875,465.967,96.65,464.159,94.957,463.286z"/>
				</g>
			</g>
			<g>
				<path style="fill:#F6AE46;" d="M258.778,432.491c-0.977-0.483-2.016-0.67-3.063-0.631c0.761-1.396,1.257-3.002,1.103-4.59
					c-0.17-1.748-1.42-3.432-3.206-3.788c-2.164-0.431-4.48,0.999-5.844,2.575c-0.305,0.352-0.565,0.732-0.788,1.13
					c-0.277-0.587-0.635-1.138-1.046-1.645c-1.574-1.939-3.768-3.046-6.28-2.948c-2.284,0.09-4.784,1.201-5.83,3.342
					c-0.938,1.92-0.768,4.469-0.143,6.465c0.046,0.147,0.101,0.296,0.16,0.445c-1.117,0.227-2.173,0.759-2.968,1.591
					c-0.636,0.666-1.139,1.523-1.299,2.436c-0.187,1.064,0.161,2.107,0.743,2.993c0.957,1.456,2.395,2.356,4.066,2.673
					c-0.892,0.924-1.687,2.119-1.744,3.427c-0.049,1.132,0.438,2.349,1.016,3.302c2.399,3.952,8.087,5.111,11.888,2.54
					c1.113-0.753,2-1.825,2.406-3.104c0.472,0.61,1.044,1.129,1.676,1.488c1.857,1.054,4.179,0.828,5.985-0.223
					c3.331-1.939,4.866-6.614,2.989-9.937c1.284-0.78,2.349-2.068,2.58-3.547C261.452,434.736,260.278,433.232,258.778,432.491z"/>
				<path style="fill:#418258;" d="M249.604,433.234c-0.461-0.414-0.973-0.62-1.505-0.684c-0.786-0.449-1.725-0.651-2.624-0.584
					c-1.48,0.111-2.867,0.889-3.862,1.97c-0.974,1.059-1.637,2.465-1.534,3.928c0.081,1.146,0.614,2.209,1.477,2.964
					c3.037,2.657,8.873,0.658,9.546-3.328C251.362,435.96,250.765,434.276,249.604,433.234z"/>
			</g>
			<g>
				<path style="fill:#F6AE46;" d="M141.426,378.114c-0.567-0.281-1.171-0.389-1.778-0.366c0.442-0.811,0.73-1.743,0.641-2.665
					c-0.099-1.015-0.825-1.993-1.862-2.2c-1.257-0.25-2.601,0.58-3.394,1.495c-0.177,0.205-0.328,0.425-0.457,0.656
					c-0.161-0.341-0.369-0.661-0.607-0.955c-0.914-1.126-2.188-1.769-3.647-1.711c-1.326,0.052-2.778,0.697-3.385,1.94
					c-0.545,1.115-0.446,2.595-0.083,3.754c0.027,0.085,0.058,0.172,0.093,0.258c-0.648,0.132-1.262,0.441-1.723,0.924
					c-0.369,0.387-0.661,0.884-0.754,1.415c-0.108,0.618,0.094,1.224,0.432,1.738c0.556,0.846,1.391,1.368,2.361,1.552
					c-0.518,0.537-0.98,1.231-1.013,1.99c-0.029,0.657,0.255,1.364,0.59,1.917c1.393,2.295,4.696,2.968,6.903,1.475
					c0.646-0.437,1.161-1.06,1.397-1.803c0.274,0.354,0.606,0.656,0.973,0.864c1.079,0.612,2.427,0.481,3.475-0.129
					c1.934-1.126,2.825-3.841,1.735-5.77c0.746-0.453,1.364-1.201,1.498-2.06C142.979,379.418,142.298,378.545,141.426,378.114z"/>
				<path style="fill:#418258;" d="M136.099,378.546c-0.268-0.24-0.565-0.36-0.874-0.397c-0.456-0.261-1.002-0.378-1.524-0.339
					c-0.86,0.064-1.665,0.516-2.243,1.144c-0.566,0.615-0.951,1.432-0.891,2.281c0.047,0.666,0.356,1.283,0.858,1.721
					c1.763,1.543,5.152,0.382,5.543-1.932C137.12,380.129,136.773,379.151,136.099,378.546z"/>
			</g>
			<g>
				<path style="fill:#F6AE46;" d="M33.606,471.86c-0.76-0.376-1.568-0.521-2.382-0.491c0.592-1.086,0.978-2.334,0.858-3.569
					c-0.132-1.36-1.104-2.669-2.493-2.946c-1.683-0.336-3.484,0.777-4.545,2.003c-0.237,0.274-0.439,0.569-0.613,0.879
					c-0.215-0.457-0.494-0.885-0.813-1.279c-1.224-1.508-2.93-2.369-4.884-2.292c-1.776,0.07-3.721,0.934-4.534,2.599
					c-0.729,1.493-0.597,3.476-0.111,5.028c0.036,0.114,0.078,0.23,0.125,0.346c-0.868,0.177-1.69,0.59-2.308,1.238
					c-0.495,0.518-0.886,1.184-1.01,1.895c-0.145,0.827,0.126,1.639,0.578,2.328c0.744,1.133,1.863,1.832,3.162,2.079
					c-0.694,0.719-1.312,1.648-1.356,2.665c-0.038,0.88,0.341,1.827,0.79,2.568c1.866,3.074,6.289,3.975,9.246,1.975
					c0.865-0.585,1.556-1.419,1.871-2.414c0.367,0.474,0.812,0.878,1.303,1.157c1.444,0.82,3.25,0.644,4.655-0.173
					c2.59-1.508,3.784-5.144,2.324-7.728c0.999-0.606,1.827-1.608,2.006-2.759C35.686,473.606,34.772,472.437,33.606,471.86z"/>
				<path style="fill:#418258;" d="M26.471,472.438c-0.359-0.322-0.757-0.482-1.171-0.532c-0.611-0.349-1.341-0.506-2.041-0.454
					c-1.151,0.086-2.23,0.691-3.004,1.532c-0.758,0.824-1.273,1.917-1.193,3.055c0.063,0.891,0.477,1.718,1.149,2.305
					c2.362,2.066,6.901,0.512,7.424-2.588C27.838,474.558,27.374,473.248,26.471,472.438z"/>
			</g>
			<g>
				<path style="fill:#F6AE46;" d="M351.274,466.385c-0.975-0.482-2.012-0.669-3.055-0.629c0.759-1.393,1.254-2.994,1.1-4.579
					c-0.169-1.744-1.417-3.424-3.198-3.779c-2.159-0.43-4.469,0.997-5.83,2.569c-0.304,0.351-0.563,0.73-0.786,1.127
					c-0.276-0.586-0.633-1.135-1.044-1.641c-1.57-1.934-3.759-3.039-6.265-2.94c-2.278,0.09-4.773,1.198-5.816,3.334
					c-0.935,1.915-0.766,4.458-0.143,6.449c0.046,0.147,0.1,0.295,0.16,0.443c-1.114,0.227-2.168,0.757-2.96,1.588
					c-0.634,0.665-1.136,1.519-1.296,2.43c-0.186,1.061,0.161,2.102,0.741,2.985c0.955,1.453,2.389,2.35,4.056,2.666
					c-0.89,0.922-1.683,2.114-1.74,3.418c-0.049,1.129,0.437,2.343,1.014,3.293c2.393,3.943,8.067,5.099,11.859,2.534
					c1.11-0.751,1.995-1.82,2.4-3.097c0.471,0.609,1.041,1.126,1.672,1.484c1.853,1.052,4.169,0.827,5.97-0.222
					c3.323-1.934,4.854-6.598,2.981-9.913c1.281-0.778,2.344-2.063,2.574-3.539C353.941,468.625,352.77,467.125,351.274,466.385z"/>
				<path style="fill:#418258;" d="M342.122,467.127c-0.46-0.413-0.971-0.619-1.501-0.682c-0.784-0.448-1.721-0.649-2.617-0.583
					c-1.477,0.11-2.86,0.886-3.853,1.965c-0.972,1.057-1.633,2.459-1.53,3.919c0.081,1.143,0.612,2.203,1.473,2.957
					c3.029,2.651,8.852,0.656,9.523-3.32C343.876,469.846,343.28,468.165,342.122,467.127z"/>
			</g>
			<g>
				<path style="fill:#F6AE46;" d="M321.674,375.158c-0.977-0.483-2.016-0.67-3.063-0.631c0.761-1.396,1.257-3.002,1.103-4.59
					c-0.17-1.748-1.42-3.432-3.206-3.788c-2.164-0.431-4.48,0.999-5.844,2.575c-0.305,0.352-0.565,0.732-0.788,1.13
					c-0.277-0.587-0.635-1.138-1.046-1.645c-1.574-1.939-3.768-3.046-6.28-2.947c-2.284,0.09-4.784,1.201-5.83,3.342
					c-0.938,1.92-0.768,4.469-0.143,6.465c0.046,0.147,0.101,0.296,0.16,0.445c-1.117,0.227-2.173,0.759-2.968,1.591
					c-0.636,0.666-1.139,1.523-1.299,2.436c-0.186,1.064,0.161,2.107,0.743,2.993c0.957,1.456,2.395,2.356,4.066,2.673
					c-0.892,0.924-1.687,2.119-1.744,3.427c-0.049,1.132,0.438,2.349,1.016,3.302c2.399,3.952,8.087,5.111,11.888,2.54
					c1.113-0.753,2-1.825,2.406-3.104c0.472,0.61,1.043,1.129,1.676,1.488c1.857,1.054,4.18,0.828,5.985-0.223
					c3.331-1.939,4.866-6.614,2.989-9.937c1.284-0.78,2.349-2.068,2.58-3.547C324.348,377.403,323.174,375.899,321.674,375.158z"/>
				<path style="fill:#418258;" d="M312.5,375.901c-0.461-0.414-0.973-0.62-1.505-0.684c-0.786-0.449-1.725-0.651-2.624-0.584
					c-1.48,0.111-2.867,0.889-3.862,1.97c-0.974,1.059-1.637,2.465-1.534,3.928c0.081,1.146,0.614,2.208,1.477,2.964
					c3.037,2.657,8.873,0.658,9.546-3.328C314.258,378.627,313.661,376.943,312.5,375.901z"/>
			</g>
			<g>
				<path style="fill:#F6AE46;" d="M291.874,477.377c-0.565-0.279-1.166-0.388-1.771-0.365c0.44-0.807,0.727-1.736,0.638-2.654
					c-0.098-1.011-0.821-1.985-1.854-2.19c-1.251-0.25-2.59,0.578-3.379,1.489c-0.176,0.204-0.326,0.423-0.455,0.653
					c-0.16-0.34-0.367-0.658-0.605-0.951c-0.91-1.121-2.179-1.762-3.632-1.704c-1.32,0.052-2.766,0.694-3.371,1.932
					c-0.542,1.11-0.444,2.584-0.083,3.738c0.027,0.085,0.058,0.171,0.093,0.257c-0.646,0.131-1.257,0.439-1.716,0.92
					c-0.368,0.385-0.659,0.88-0.751,1.409c-0.108,0.615,0.093,1.219,0.43,1.73c0.553,0.842,1.385,1.362,2.351,1.546
					c-0.516,0.534-0.976,1.225-1.009,1.981c-0.029,0.655,0.253,1.358,0.588,1.909c1.387,2.285,4.676,2.956,6.874,1.469
					c0.643-0.435,1.156-1.055,1.391-1.795c0.273,0.353,0.603,0.653,0.969,0.86c1.074,0.61,2.417,0.479,3.461-0.129
					c1.926-1.121,2.814-3.824,1.728-5.746c0.743-0.451,1.359-1.196,1.492-2.051C293.42,478.676,292.741,477.806,291.874,477.377z"/>
				<path style="fill:#418258;" d="M285.698,477.412c-0.455-0.26-0.997-0.377-1.517-0.338c-0.856,0.064-1.658,0.514-2.233,1.139
					c-0.563,0.612-0.947,1.426-0.887,2.271c0.047,0.663,0.355,1.277,0.854,1.714c1.916,1.677,5.759,0.148,5.548-2.582
					C287.109,478.063,286.436,477.5,285.698,477.412z"/>
			</g>
			<g>
				<rect x="180.147" y="358.395" style="fill:#C32F1D;" width="5.589" height="136.895"/>
				<g>
					<g>
						<path style="fill:#D25C2B;" d="M185.301,356.242c-0.008-0.006-0.017-0.008-0.025-0.014c0.042-0.008,0.081-0.077,0.022-0.079
							c-0.057-0.001-0.113,0-0.17-0.002c-0.238-0.105-0.519-0.124-0.77-0.125c-0.369-0.001-0.733,0.065-1.101,0.068
							c-0.042,0-0.078,0.031-0.105,0.066c-2.127,0.057-4.252,0.238-6.379,0.302c-2.875,0.087-5.771,0.153-8.646,0.027
							c-2.858-0.125-5.667-0.557-8.48-1.044c-2.089-0.362-4.846-0.792-6.549,0.823c-0.762,0.723-1.22,1.774-1.155,2.829
							c0.064,1.026,0.631,1.967,1.474,2.548c0.813,0.559,1.813,0.74,2.777,0.822c1.369,0.117,2.753,0.126,4.126,0.139
							c2.892,0.027,5.783-0.066,8.672-0.177c2.884-0.111,5.759-0.278,8.634-0.534c1.174-0.105,2.376-0.156,3.536-0.379
							c1.08-0.208,1.986-0.647,2.77-1.421c0.769-0.76,1.5-1.753,1.643-2.854C185.622,356.881,185.616,356.475,185.301,356.242z"/>
						<path style="fill:#D25C2B;" d="M180.369,357.237c0.143,1.101,0.873,2.095,1.642,2.854c0.785,0.775,1.691,1.213,2.771,1.421
							c1.16,0.223,2.361,0.275,3.536,0.379c2.876,0.256,5.75,0.423,8.634,0.534c2.889,0.111,5.781,0.204,8.672,0.177
							c1.373-0.013,2.757-0.022,4.126-0.139c0.964-0.082,1.964-0.263,2.777-0.822c0.844-0.581,1.41-1.521,1.474-2.548
							c0.066-1.055-0.393-2.106-1.155-2.829c-1.703-1.615-4.46-1.185-6.549-0.823c-2.814,0.488-5.623,0.919-8.48,1.044
							c-2.875,0.126-5.77,0.061-8.646-0.027c-2.127-0.064-4.252-0.245-6.379-0.302c-0.027-0.035-0.063-0.066-0.105-0.066
							c-0.368-0.003-0.732-0.069-1.101-0.068c-0.25,0.001-0.532,0.02-0.77,0.125c-0.057,0.001-0.113,0-0.17,0.002
							c-0.059,0.001-0.02,0.071,0.022,0.079c-0.008,0.005-0.017,0.008-0.025,0.014C180.329,356.475,180.323,356.881,180.369,357.237
							z"/>
						<g>
							<path style="fill:#8C8D7C;" d="M189.688,358.65c0.129-0.249,0.224-0.515,0.271-0.805c0.107-0.673-0.027-1.381-0.293-2.003
								c-0.277-0.648-0.711-1.307-1.362-1.625c-0.563-0.275-1.191-0.256-1.797-0.17c0.029-0.159,0.018-0.319-0.078-0.464
								c-0.036-0.054-0.098-0.062-0.159-0.044c-0.59-0.823-1.851-1.005-2.791-0.962c-0.686,0.032-1.355,0.193-1.991,0.442
								c-0.312-0.291-0.9-0.135-1.262-0.042c-0.574,0.148-1.148,0.304-1.686,0.558c-0.968,0.459-1.738,1.326-1.945,2.398
								c-0.051,0.265-0.06,0.549,0.023,0.809c0.05,0.156,0.143,0.338,0.273,0.462c-0.533,0.914-0.961,1.895-1.151,2.937
								c-0.21,1.151-0.191,2.691,0.719,3.552c0.387,0.366,0.894,0.606,1.418,0.693c0.345,0.057,0.745,0.071,1.085-0.054
								c-0.023,0.384,0.173,0.779,0.53,0.964c0.57,0.296,1.272,0.115,1.842-0.086c0.702-0.247,1.364-0.587,1.997-0.977
								c0.759,0.325,1.533,0.524,2.353,0.619c0.782,0.09,1.526,0.124,2.236-0.266c1.276-0.701,2.275-2.145,2.435-3.596
								C190.448,360.162,190.218,359.299,189.688,358.65z"/>
							<g>
								<path style="fill:#C32F1D;" d="M176.988,356.826c-0.063-0.109-0.102-0.229-0.123-0.353c-0.048-0.28,0.005-0.57,0.093-0.837
									c0.177-0.536,0.507-1.068,0.948-1.425c0.532-0.431,1.209-0.661,1.859-0.846c0.446-0.126,0.966-0.316,1.438-0.229
									c-0.414,0.182-0.812,0.401-1.188,0.649c-1.041,0.686-1.935,1.594-2.628,2.629c-0.112,0.166-0.219,0.336-0.325,0.507
									C177.037,356.891,177.008,356.861,176.988,356.826z"/>
								<path style="fill:#C32F1D;" d="M179.208,363.815c-0.04,0.01-0.08,0.033-0.104,0.07c-0.013,0.02-0.019,0.041-0.03,0.061
									c-0.038,0.029-0.079,0.054-0.126,0.073c-0.458,0.189-1.087,0.046-1.519-0.15c-0.46-0.208-0.87-0.564-1.091-1.023
									c-0.267-0.554-0.324-1.257-0.308-1.863c0.035-1.281,0.518-2.501,1.149-3.6c0.588-1.024,1.3-1.963,2.205-2.729
									c0.996-0.844,2.191-1.478,3.491-1.677c0.613-0.094,1.256-0.099,1.861,0.049c0.523,0.128,0.957,0.385,1.355,0.727
									c0.002,0.019,0.007,0.038,0.019,0.056c0.119,0.18-0.006,0.446-0.092,0.613c-0.165,0.318-0.392,0.606-0.622,0.879
									c-0.482,0.572-1.018,1.095-1.543,1.628c-0.673,0.684-1.216,1.505-1.774,2.283c-0.818,1.14-1.528,2.333-2.227,3.548
									c-0.16,0.277-0.318,0.556-0.486,0.828C179.316,363.667,179.266,363.744,179.208,363.815z"/>
								<path style="fill:#C32F1D;" d="M182.555,364.359c-0.619,0.327-1.303,0.658-2.004,0.752c-0.335,0.045-0.724,0.017-0.99-0.216
									c-0.187-0.164-0.321-0.457-0.299-0.72c0.002-0.001,0.004-0.002,0.005-0.004c0.172-0.132,0.296-0.311,0.409-0.493
									c0.202-0.326,0.391-0.66,0.582-0.993c0.379-0.661,0.754-1.325,1.167-1.967c0.429-0.668,0.888-1.315,1.358-1.954
									c0.343-0.465,0.698-0.996,1.061-1.394c0.589-0.646,1.24-1.229,1.804-1.899c0.273-0.324,0.544-0.664,0.729-1.048
									c0.029-0.06,0.056-0.122,0.079-0.186c0.499-0.026,1.018-0.046,1.491,0.13c0.555,0.207,0.945,0.681,1.228,1.183
									c0.627,1.111,0.762,2.526-0.104,3.545c-0.43,0.506-0.969,0.918-1.461,1.36c-0.556,0.501-1.103,1.013-1.676,1.494
									C184.876,362.839,183.779,363.712,182.555,364.359z"/>
								<path style="fill:#C32F1D;" d="M189.983,361.383c-0.188,0.867-0.677,1.671-1.302,2.293c-0.321,0.319-0.693,0.604-1.112,0.78
									c-0.417,0.176-0.87,0.172-1.314,0.135c-0.474-0.04-0.956-0.09-1.419-0.197c-0.401-0.093-0.786-0.232-1.173-0.369
									c0.583-0.382,1.142-0.802,1.681-1.235c0.65-0.522,1.28-1.067,1.896-1.629c0.594-0.54,1.23-1.049,1.79-1.624
									c0.197-0.202,0.373-0.418,0.52-0.65C189.952,359.677,190.178,360.486,189.983,361.383z"/>
							</g>
						</g>
					</g>
					<g>
						<path style="fill:#D25C2B;" d="M185.301,418.187c-0.008-0.006-0.017-0.008-0.025-0.014c0.042-0.008,0.081-0.077,0.022-0.079
							c-0.057-0.001-0.113,0-0.17-0.002c-0.238-0.105-0.519-0.124-0.77-0.125c-0.369-0.002-0.733,0.065-1.101,0.068
							c-0.042,0-0.078,0.031-0.105,0.066c-2.127,0.057-4.252,0.238-6.379,0.302c-2.875,0.087-5.771,0.153-8.646,0.027
							c-2.858-0.126-5.667-0.557-8.48-1.044c-2.089-0.362-4.846-0.792-6.549,0.823c-0.762,0.723-1.22,1.774-1.155,2.829
							c0.064,1.026,0.631,1.967,1.474,2.548c0.813,0.559,1.813,0.74,2.777,0.822c1.369,0.117,2.753,0.126,4.126,0.139
							c2.892,0.027,5.783-0.066,8.672-0.177c2.884-0.111,5.759-0.278,8.634-0.534c1.174-0.105,2.376-0.156,3.536-0.379
							c1.08-0.208,1.986-0.647,2.77-1.421c0.769-0.76,1.5-1.753,1.643-2.854C185.622,418.826,185.616,418.421,185.301,418.187z"/>
						<path style="fill:#D25C2B;" d="M180.369,419.182c0.143,1.101,0.873,2.095,1.642,2.854c0.785,0.775,1.691,1.213,2.771,1.421
							c1.16,0.223,2.361,0.275,3.536,0.379c2.876,0.256,5.75,0.423,8.634,0.534c2.889,0.111,5.781,0.204,8.672,0.177
							c1.373-0.013,2.757-0.022,4.126-0.139c0.964-0.083,1.964-0.263,2.777-0.822c0.844-0.581,1.41-1.521,1.474-2.548
							c0.066-1.055-0.393-2.106-1.155-2.829c-1.703-1.615-4.46-1.185-6.549-0.823c-2.814,0.488-5.623,0.919-8.48,1.044
							c-2.875,0.126-5.77,0.061-8.646-0.027c-2.127-0.064-4.252-0.245-6.379-0.302c-0.027-0.035-0.063-0.066-0.105-0.066
							c-0.368-0.003-0.732-0.069-1.101-0.068c-0.25,0.001-0.532,0.02-0.77,0.125c-0.057,0.001-0.113,0-0.17,0.002
							c-0.059,0.001-0.02,0.071,0.022,0.079c-0.008,0.005-0.017,0.008-0.025,0.014C180.329,418.421,180.323,418.826,180.369,419.182
							z"/>
						<g>
							<path style="fill:#8C8D7C;" d="M189.688,420.596c0.129-0.249,0.224-0.515,0.271-0.805c0.107-0.673-0.027-1.381-0.293-2.003
								c-0.277-0.647-0.711-1.307-1.362-1.624c-0.563-0.275-1.191-0.256-1.797-0.17c0.029-0.159,0.018-0.319-0.078-0.464
								c-0.036-0.055-0.098-0.062-0.159-0.044c-0.59-0.823-1.851-1.005-2.791-0.962c-0.686,0.032-1.355,0.193-1.991,0.442
								c-0.312-0.291-0.9-0.135-1.262-0.042c-0.574,0.148-1.148,0.304-1.686,0.558c-0.968,0.459-1.738,1.326-1.945,2.398
								c-0.051,0.265-0.06,0.549,0.023,0.809c0.05,0.156,0.143,0.338,0.273,0.462c-0.533,0.914-0.961,1.895-1.151,2.937
								c-0.21,1.151-0.191,2.691,0.719,3.552c0.387,0.366,0.894,0.606,1.418,0.693c0.345,0.057,0.745,0.071,1.085-0.054
								c-0.023,0.384,0.173,0.779,0.53,0.964c0.57,0.296,1.272,0.115,1.842-0.086c0.702-0.247,1.364-0.587,1.997-0.977
								c0.759,0.325,1.533,0.524,2.353,0.619c0.782,0.09,1.526,0.124,2.236-0.266c1.276-0.701,2.275-2.145,2.435-3.596
								C190.448,422.108,190.218,421.245,189.688,420.596z"/>
							<g>
								<path style="fill:#C32F1D;" d="M176.988,418.772c-0.063-0.109-0.102-0.229-0.123-0.353c-0.048-0.28,0.005-0.57,0.093-0.837
									c0.177-0.536,0.507-1.068,0.948-1.425c0.532-0.43,1.209-0.661,1.859-0.846c0.446-0.126,0.966-0.316,1.438-0.229
									c-0.414,0.182-0.812,0.401-1.188,0.649c-1.041,0.686-1.935,1.594-2.628,2.628c-0.112,0.166-0.219,0.336-0.325,0.507
									C177.037,418.836,177.008,418.807,176.988,418.772z"/>
								<path style="fill:#C32F1D;" d="M179.208,425.76c-0.04,0.01-0.08,0.033-0.104,0.07c-0.013,0.02-0.019,0.041-0.03,0.062
									c-0.038,0.028-0.079,0.054-0.126,0.073c-0.458,0.189-1.087,0.046-1.519-0.151c-0.46-0.208-0.87-0.564-1.091-1.023
									c-0.267-0.554-0.324-1.257-0.308-1.863c0.035-1.281,0.518-2.501,1.149-3.6c0.588-1.024,1.3-1.963,2.205-2.729
									c0.996-0.844,2.191-1.478,3.491-1.677c0.613-0.094,1.256-0.099,1.861,0.049c0.523,0.128,0.957,0.385,1.355,0.727
									c0.002,0.019,0.007,0.038,0.019,0.056c0.119,0.18-0.006,0.446-0.092,0.612c-0.165,0.318-0.392,0.606-0.622,0.879
									c-0.482,0.573-1.018,1.095-1.543,1.628c-0.673,0.684-1.216,1.505-1.774,2.283c-0.818,1.14-1.528,2.333-2.227,3.548
									c-0.16,0.277-0.318,0.556-0.486,0.828C179.316,425.612,179.266,425.69,179.208,425.76z"/>
								<path style="fill:#C32F1D;" d="M182.555,426.305c-0.619,0.327-1.303,0.658-2.004,0.752c-0.335,0.045-0.724,0.017-0.99-0.216
									c-0.187-0.164-0.321-0.457-0.299-0.72c0.002-0.001,0.004-0.002,0.005-0.004c0.172-0.131,0.296-0.311,0.409-0.493
									c0.202-0.326,0.391-0.66,0.582-0.993c0.379-0.661,0.754-1.325,1.167-1.967c0.429-0.667,0.888-1.315,1.358-1.954
									c0.343-0.465,0.698-0.996,1.061-1.394c0.589-0.646,1.24-1.229,1.804-1.899c0.273-0.324,0.544-0.664,0.729-1.048
									c0.029-0.06,0.056-0.122,0.079-0.186c0.499-0.026,1.018-0.046,1.491,0.13c0.555,0.207,0.945,0.68,1.228,1.183
									c0.627,1.111,0.762,2.526-0.104,3.546c-0.43,0.506-0.969,0.918-1.461,1.36c-0.556,0.501-1.103,1.013-1.676,1.494
									C184.876,424.784,183.779,425.658,182.555,426.305z"/>
								<path style="fill:#C32F1D;" d="M189.983,423.328c-0.188,0.867-0.677,1.671-1.302,2.293c-0.321,0.319-0.693,0.604-1.112,0.78
									c-0.417,0.176-0.87,0.172-1.314,0.135c-0.474-0.04-0.956-0.09-1.419-0.197c-0.401-0.093-0.786-0.232-1.173-0.369
									c0.583-0.382,1.142-0.802,1.681-1.235c0.65-0.522,1.28-1.067,1.896-1.629c0.594-0.54,1.23-1.049,1.79-1.624
									c0.197-0.202,0.373-0.418,0.52-0.649C189.952,421.622,190.178,422.431,189.983,423.328z"/>
							</g>
						</g>
					</g>
					<g>
						<path style="fill:#D25C2B;" d="M185.301,480.133c-0.008-0.006-0.017-0.008-0.025-0.014c0.042-0.008,0.081-0.077,0.022-0.079
							c-0.057-0.001-0.113-0.001-0.17-0.002c-0.238-0.105-0.519-0.124-0.77-0.125c-0.369-0.001-0.733,0.065-1.101,0.068
							c-0.042,0-0.078,0.031-0.105,0.066c-2.127,0.057-4.252,0.238-6.379,0.302c-2.875,0.087-5.771,0.153-8.646,0.027
							c-2.858-0.125-5.667-0.557-8.48-1.044c-2.089-0.362-4.846-0.792-6.549,0.823c-0.762,0.723-1.22,1.774-1.155,2.829
							c0.064,1.026,0.631,1.967,1.474,2.548c0.813,0.559,1.813,0.74,2.777,0.822c1.369,0.117,2.753,0.126,4.126,0.139
							c2.892,0.027,5.783-0.066,8.672-0.176c2.884-0.111,5.759-0.278,8.634-0.534c1.174-0.105,2.376-0.156,3.536-0.379
							c1.08-0.208,1.986-0.647,2.77-1.421c0.769-0.76,1.5-1.753,1.643-2.854C185.622,480.772,185.616,480.367,185.301,480.133z"/>
						<path style="fill:#D25C2B;" d="M180.369,481.128c0.143,1.101,0.873,2.094,1.642,2.854c0.785,0.775,1.691,1.213,2.771,1.421
							c1.16,0.223,2.361,0.275,3.536,0.379c2.876,0.256,5.75,0.423,8.634,0.534c2.889,0.111,5.781,0.204,8.672,0.176
							c1.373-0.013,2.757-0.022,4.126-0.139c0.964-0.082,1.964-0.263,2.777-0.822c0.844-0.581,1.41-1.521,1.474-2.548
							c0.066-1.055-0.393-2.106-1.155-2.829c-1.703-1.615-4.46-1.185-6.549-0.823c-2.814,0.488-5.623,0.919-8.48,1.044
							c-2.875,0.126-5.77,0.061-8.646-0.027c-2.127-0.065-4.252-0.245-6.379-0.302c-0.027-0.035-0.063-0.066-0.105-0.066
							c-0.368-0.003-0.732-0.069-1.101-0.068c-0.25,0.001-0.532,0.02-0.77,0.125c-0.057,0.001-0.113,0-0.17,0.002
							c-0.059,0.001-0.02,0.071,0.022,0.079c-0.008,0.006-0.017,0.008-0.025,0.014C180.329,480.367,180.323,480.772,180.369,481.128
							z"/>
						<g>
							<path style="fill:#8C8D7C;" d="M189.688,482.542c0.129-0.249,0.224-0.515,0.271-0.805c0.107-0.673-0.027-1.381-0.293-2.003
								c-0.277-0.647-0.711-1.307-1.362-1.625c-0.563-0.275-1.191-0.256-1.797-0.169c0.029-0.159,0.018-0.319-0.078-0.464
								c-0.036-0.054-0.098-0.062-0.159-0.044c-0.59-0.823-1.851-1.005-2.791-0.962c-0.686,0.032-1.355,0.193-1.991,0.442
								c-0.312-0.291-0.9-0.135-1.262-0.042c-0.574,0.148-1.148,0.304-1.686,0.558c-0.968,0.459-1.738,1.326-1.945,2.398
								c-0.051,0.265-0.06,0.549,0.023,0.809c0.05,0.156,0.143,0.338,0.273,0.462c-0.533,0.914-0.961,1.895-1.151,2.937
								c-0.21,1.151-0.191,2.691,0.719,3.552c0.387,0.366,0.894,0.606,1.418,0.693c0.345,0.057,0.745,0.071,1.085-0.054
								c-0.023,0.384,0.173,0.779,0.53,0.964c0.57,0.296,1.272,0.115,1.842-0.086c0.702-0.247,1.364-0.587,1.997-0.977
								c0.759,0.325,1.533,0.524,2.353,0.619c0.782,0.09,1.526,0.124,2.236-0.266c1.276-0.701,2.275-2.145,2.435-3.596
								C190.448,484.054,190.218,483.191,189.688,482.542z"/>
							<g>
								<path style="fill:#C32F1D;" d="M176.988,480.717c-0.063-0.109-0.102-0.229-0.123-0.353c-0.048-0.28,0.005-0.57,0.093-0.837
									c0.177-0.536,0.507-1.068,0.948-1.425c0.532-0.431,1.209-0.661,1.859-0.846c0.446-0.126,0.966-0.316,1.438-0.229
									c-0.414,0.182-0.812,0.401-1.188,0.649c-1.041,0.686-1.935,1.594-2.628,2.629c-0.112,0.166-0.219,0.336-0.325,0.507
									C177.037,480.782,177.008,480.753,176.988,480.717z"/>
								<path style="fill:#C32F1D;" d="M179.208,487.706c-0.04,0.01-0.08,0.033-0.104,0.07c-0.013,0.02-0.019,0.041-0.03,0.062
									c-0.038,0.029-0.079,0.054-0.126,0.073c-0.458,0.189-1.087,0.046-1.519-0.15c-0.46-0.208-0.87-0.564-1.091-1.023
									c-0.267-0.554-0.324-1.257-0.308-1.863c0.035-1.281,0.518-2.501,1.149-3.6c0.588-1.024,1.3-1.963,2.205-2.729
									c0.996-0.844,2.191-1.478,3.491-1.677c0.613-0.094,1.256-0.099,1.861,0.049c0.523,0.128,0.957,0.385,1.355,0.727
									c0.002,0.019,0.007,0.038,0.019,0.056c0.119,0.18-0.006,0.446-0.092,0.613c-0.165,0.318-0.392,0.606-0.622,0.879
									c-0.482,0.572-1.018,1.095-1.543,1.628c-0.673,0.684-1.216,1.505-1.774,2.283c-0.818,1.14-1.528,2.333-2.227,3.548
									c-0.16,0.277-0.318,0.556-0.486,0.828C179.316,487.558,179.266,487.636,179.208,487.706z"/>
								<path style="fill:#C32F1D;" d="M182.555,488.251c-0.619,0.327-1.303,0.658-2.004,0.752c-0.335,0.045-0.724,0.017-0.99-0.216
									c-0.187-0.164-0.321-0.457-0.299-0.72c0.002-0.001,0.004-0.002,0.005-0.004c0.172-0.132,0.296-0.311,0.409-0.493
									c0.202-0.326,0.391-0.66,0.582-0.993c0.379-0.661,0.754-1.325,1.167-1.967c0.429-0.668,0.888-1.315,1.358-1.954
									c0.343-0.465,0.698-0.996,1.061-1.394c0.589-0.646,1.24-1.229,1.804-1.899c0.273-0.324,0.544-0.665,0.729-1.048
									c0.029-0.06,0.056-0.122,0.079-0.186c0.499-0.026,1.018-0.046,1.491,0.13c0.555,0.207,0.945,0.68,1.228,1.183
									c0.627,1.111,0.762,2.526-0.104,3.546c-0.43,0.506-0.969,0.918-1.461,1.36c-0.556,0.501-1.103,1.013-1.676,1.494
									C184.876,486.73,183.779,487.603,182.555,488.251z"/>
								<path style="fill:#C32F1D;" d="M189.983,485.274c-0.188,0.867-0.677,1.671-1.302,2.293c-0.321,0.319-0.693,0.604-1.112,0.78
									c-0.417,0.176-0.87,0.172-1.314,0.135c-0.474-0.04-0.956-0.09-1.419-0.197c-0.401-0.093-0.786-0.232-1.173-0.369
									c0.583-0.382,1.142-0.802,1.681-1.235c0.65-0.522,1.28-1.067,1.896-1.628c0.594-0.54,1.23-1.049,1.79-1.624
									c0.197-0.202,0.373-0.418,0.52-0.65C189.952,483.568,190.178,484.377,189.983,485.274z"/>
							</g>
						</g>
					</g>
				</g>
			</g>
			<g>
				<path style="fill:#F6AE46;" d="M318.682,456.304c0.378-1.294,0.44-2.727,0.003-4.015c-0.273-0.806-0.733-1.495-1.296-2.103
					c2.041-0.92,3.741-2.588,4.793-4.556c0.665-1.243,1.098-2.643,1.163-4.055c0.069-1.487-0.372-2.953-1.125-4.228
					c-0.783-1.326-1.913-2.478-3.276-3.206c-1.395-0.745-2.897-0.879-4.44-0.626c-0.329,0.054-0.654,0.126-0.978,0.206
					c0.426-0.691,0.795-1.421,1.089-2.203c1.214-3.236,0.332-7.214-2.422-9.415c-2.894-2.314-7.064-1.806-10.122-0.097
					c-1.533,0.857-2.881,2.077-3.838,3.552c-0.031,0.049-0.059,0.099-0.09,0.148c-0.079-0.126-0.159-0.252-0.242-0.374
					c-0.817-1.194-1.907-2.246-3.261-2.8c-1.324-0.541-2.776-0.612-4.159-0.263c-3.075,0.775-5.667,3.148-6.61,6.183
					c-0.717,2.309-0.39,4.814,0.637,6.979c-2.397,0.122-4.69,1.171-6.167,3.145c-1.992,2.662-2.105,6.237-1.023,9.288
					c1.024,2.888,3.179,5.857,6.344,6.516c1.379,0.287,2.795,0.128,4.129-0.332c-0.354,0.711-0.601,1.465-0.637,2.258
					c-0.131,2.928,2.194,5.499,4.524,6.968c2.46,1.551,5.679,2.292,8.533,1.559c1.234-0.317,2.493-0.903,3.326-1.896
					c0.788-0.94,1.299-2.082,1.68-3.238c0.01-0.032,0.017-0.064,0.028-0.096c0.139,0.207,0.282,0.412,0.434,0.609
					c0.831,1.078,1.882,2.057,3.199,2.485c1.439,0.468,3.021,0.135,4.361-0.482C315.788,461.041,317.882,459.043,318.682,456.304z"
					/>
				<path style="fill:#D4953C;" d="M306.376,427.014c0.065-0.093-0.131-0.115-0.183-0.044c-2.893,3.95-4.686,8.891-5.323,13.728
					c-0.026,0.196,0.332,0.179,0.367,0.012C302.25,435.902,303.546,431.107,306.376,427.014z"/>
				<path style="fill:#D4953C;" d="M308.34,429.134c0.108-0.163-0.227-0.2-0.314-0.076c-2.202,3.141-3.621,6.684-5.178,10.165
					c-0.143,0.32,0.442,0.389,0.559,0.134C304.973,435.923,306.245,432.299,308.34,429.134z"/>
				<path style="fill:#D4953C;" d="M316.532,439.405c-1.235,0.024-2.444,0.257-3.656,0.479c-1.156,0.213-2.311,0.42-3.454,0.696
					c-2.252,0.544-4.544,1.25-6.491,2.54c-0.353,0.234,0.113,0.488,0.38,0.339c1.996-1.116,4.143-1.911,6.354-2.481
					c1.054-0.271,2.118-0.485,3.185-0.702c1.198-0.244,2.394-0.513,3.62-0.56C316.701,439.706,316.811,439.4,316.532,439.405z"/>
				<path style="fill:#D4953C;" d="M316.368,443.409c-1.573-0.808-3.558-0.28-5.23-0.164c-1.129,0.079-2.253,0.206-3.376,0.348
					c-1.163,0.147-2.347,0.252-3.494,0.493c-0.356,0.075-0.46,0.564-0.009,0.55c2.122-0.069,4.237-0.565,6.352-0.764
					c0.867-0.082,1.731-0.167,2.597-0.258c0.911-0.096,1.916-0.206,2.774,0.189C316.243,443.924,316.72,443.59,316.368,443.409z"/>
				<path style="fill:#D4953C;" d="M299.336,439.806c-0.067-1.025-0.52-2.022-0.936-2.953c-0.447-1-0.972-1.96-1.537-2.899
					c-0.594-0.988-1.175-1.991-1.812-2.952c-0.281-0.424-0.564-0.855-0.892-1.245c-0.401-0.475-0.865-0.884-1.152-1.446
					c-0.03-0.059-0.161-0.019-0.132,0.05c0.199,0.469,0.496,0.863,0.792,1.273c0.334,0.463,0.629,0.953,0.911,1.449
					c0.568,0.997,1.116,2.007,1.67,3.012c0.499,0.905,0.972,1.828,1.383,2.777c0.438,1.009,0.696,2.09,1.168,3.079
					C298.904,440.175,299.352,440.047,299.336,439.806z"/>
				<path style="fill:#D4953C;" d="M298.99,440.546c-1.036-1.998-2.545-3.761-4.039-5.431c-1.541-1.722-3.001-3.647-4.837-5.067
					c-0.114-0.088-0.401,0.047-0.257,0.165c1.742,1.428,3.091,3.327,4.534,5.044c1.472,1.75,2.744,3.6,3.957,5.535
					C298.517,441.061,299.161,440.876,298.99,440.546z"/>
				<path style="fill:#D4953C;" d="M298.47,442.815c-5.038-1.856-10.568-0.552-15.724-0.076c-0.073,0.007-0.084,0.106-0.002,0.104
					c5.136-0.128,10.32-1.081,15.332,0.493C298.38,443.432,298.889,442.969,298.47,442.815z"/>
				<path style="fill:#D4953C;" d="M296.788,443.808c-4.745,0.456-9.339,1.939-14.107,2.221c-0.171,0.01-0.257,0.239-0.046,0.233
					c4.802-0.148,9.495-1.302,14.25-1.876C297.386,444.325,297.278,443.761,296.788,443.808z"/>
				<path style="fill:#D4953C;" d="M298.552,445.64c0.21-0.345-0.456-0.388-0.629-0.151c-1.497,2.052-2.733,4.299-3.813,6.596
					c-1.059,2.254-1.878,4.61-2.402,7.046c-0.037,0.173,0.289,0.157,0.329,0.01C293.394,454.261,295.941,449.932,298.552,445.64z"/>
				<path style="fill:#D4953C;" d="M296.358,459.87c0.623-4.402,4.205-8.05,3.73-12.659c-0.037-0.359-0.737-0.231-0.727,0.122
					c0.138,4.488-3.046,8.145-3.464,12.522C295.874,460.101,296.328,460.086,296.358,459.87z"/>
				<path style="fill:#D4953C;" d="M313.457,455.126c-0.444-2.473-2.094-4.463-3.959-6.052c-1.891-1.611-4.042-3.03-6.232-4.201
					c-0.201-0.108-0.71,0.152-0.436,0.352c1.949,1.422,4.108,2.512,5.982,4.051c1.885,1.548,3.593,3.484,4.06,5.949
					C312.926,455.508,313.508,455.41,313.457,455.126z"/>
				<path style="fill:#D4953C;" d="M309.905,457.138c-0.302-0.405-0.379-0.897-0.547-1.362c-0.189-0.523-0.439-1.025-0.722-1.502
					c-0.586-0.989-1.327-1.88-2.071-2.753c-0.786-0.922-1.609-1.81-2.404-2.724c-0.814-0.935-1.545-1.934-2.384-2.845
					c-0.124-0.135-0.472-0.007-0.384,0.193c0.47,1.069,1.245,1.946,2.003,2.822c0.813,0.94,1.663,1.848,2.492,2.775
					c0.797,0.891,1.589,1.802,2.214,2.825c0.306,0.5,0.568,1.023,0.766,1.575c0.157,0.437,0.318,0.85,0.635,1.198
					C309.626,457.474,310.04,457.32,309.905,457.138z"/>
				<path style="fill:#418258;" d="M308.709,442.631c0.02-2.354-1.385-4.626-3.389-5.823c-2.169-1.296-4.866-1.024-7.204-0.421
					c-0.253,0.065-0.6,0.237-0.546,0.558c0.001,0.008,0.005,0.015,0.007,0.022c-0.304,0.15-0.602,0.315-0.881,0.513
					c-2.956,2.091-4.108,6.657-1.953,9.691c1.792,2.522,5.227,3.429,8.154,2.72c1.488-0.36,2.897-1.107,3.912-2.271
					C307.979,446.276,308.694,444.413,308.709,442.631z"/>
			</g>
			<g>
				<path style="fill:#F6AE46;" d="M275.608,404.895c0.185-0.634,0.215-1.335,0.001-1.965c-0.134-0.395-0.359-0.732-0.634-1.029
					c0.999-0.451,1.831-1.267,2.346-2.23c0.325-0.609,0.537-1.294,0.569-1.985c0.034-0.728-0.182-1.445-0.551-2.069
					c-0.383-0.649-0.936-1.213-1.604-1.569c-0.683-0.365-1.418-0.43-2.173-0.307c-0.161,0.026-0.32,0.062-0.479,0.101
					c0.208-0.338,0.389-0.695,0.533-1.078c0.594-1.584,0.162-3.531-1.185-4.608c-1.417-1.133-3.458-0.884-4.954-0.048
					c-0.75,0.419-1.41,1.017-1.879,1.739c-0.015,0.024-0.029,0.049-0.044,0.073c-0.039-0.062-0.078-0.123-0.118-0.183
					c-0.4-0.584-0.934-1.099-1.596-1.37c-0.648-0.265-1.359-0.299-2.036-0.129c-1.505,0.379-2.774,1.541-3.235,3.027
					c-0.351,1.13-0.191,2.356,0.312,3.416c-1.173,0.059-2.296,0.573-3.019,1.539c-0.975,1.303-1.031,3.053-0.501,4.546
					c0.502,1.413,1.556,2.867,3.105,3.189c0.675,0.141,1.368,0.063,2.021-0.163c-0.173,0.348-0.294,0.717-0.312,1.105
					c-0.064,1.433,1.074,2.691,2.214,3.41c1.204,0.759,2.78,1.122,4.177,0.763c0.604-0.155,1.22-0.442,1.628-0.928
					c0.386-0.46,0.636-1.019,0.823-1.585c0.005-0.016,0.008-0.032,0.013-0.047c0.068,0.102,0.138,0.202,0.212,0.298
					c0.406,0.527,0.921,1.007,1.566,1.216c0.704,0.229,1.479,0.066,2.135-0.236C274.191,407.214,275.216,406.236,275.608,404.895z"
					/>
				<path style="fill:#D4953C;" d="M269.584,390.558c0.032-0.046-0.064-0.056-0.09-0.022c-1.416,1.933-2.294,4.352-2.606,6.72
					c-0.013,0.096,0.162,0.088,0.18,0.006C267.564,394.909,268.199,392.561,269.584,390.558z"/>
				<path style="fill:#D4953C;" d="M270.545,391.596c0.053-0.08-0.111-0.098-0.154-0.037c-1.078,1.537-1.772,3.272-2.535,4.976
					c-0.07,0.157,0.217,0.191,0.274,0.066C268.897,394.919,269.519,393.145,270.545,391.596z"/>
				<path style="fill:#D4953C;" d="M274.555,396.623c-0.605,0.012-1.197,0.126-1.789,0.235c-0.566,0.104-1.131,0.205-1.691,0.34
					c-1.102,0.266-2.224,0.612-3.177,1.243c-0.173,0.114,0.055,0.239,0.186,0.166c0.977-0.546,2.028-0.936,3.11-1.214
					c0.516-0.133,1.037-0.238,1.559-0.344c0.586-0.119,1.172-0.251,1.772-0.274C274.638,396.771,274.692,396.621,274.555,396.623z"
					/>
				<path style="fill:#D4953C;" d="M274.475,398.583c-0.77-0.395-1.742-0.137-2.56-0.08c-0.553,0.039-1.103,0.101-1.652,0.17
					c-0.569,0.072-1.149,0.123-1.71,0.241c-0.174,0.037-0.225,0.276-0.005,0.269c1.039-0.034,2.074-0.276,3.109-0.374
					c0.424-0.04,0.847-0.081,1.271-0.126c0.446-0.047,0.938-0.101,1.358,0.093C274.413,398.835,274.647,398.671,274.475,398.583z"/>
				<path style="fill:#D4953C;" d="M266.138,396.82c-0.033-0.502-0.254-0.99-0.458-1.445c-0.219-0.49-0.476-0.96-0.752-1.419
					c-0.291-0.484-0.575-0.974-0.887-1.445c-0.137-0.208-0.276-0.419-0.437-0.609c-0.196-0.233-0.423-0.433-0.564-0.708
					c-0.015-0.029-0.079-0.009-0.064,0.025c0.097,0.23,0.243,0.423,0.388,0.623c0.164,0.226,0.308,0.466,0.446,0.709
					c0.278,0.488,0.546,0.983,0.817,1.475c0.244,0.443,0.476,0.895,0.677,1.359c0.214,0.494,0.341,1.023,0.572,1.507
					C265.927,397,266.145,396.938,266.138,396.82z"/>
				<path style="fill:#D4953C;" d="M265.968,397.182c-0.507-0.978-1.246-1.841-1.977-2.658c-0.754-0.843-1.469-1.785-2.368-2.48
					c-0.056-0.043-0.196,0.023-0.126,0.08c0.853,0.699,1.513,1.629,2.22,2.469c0.72,0.856,1.343,1.762,1.937,2.709
					C265.737,397.434,266.052,397.343,265.968,397.182z"/>
				<path style="fill:#D4953C;" d="M265.714,398.292c-2.466-0.908-5.173-0.27-7.697-0.037c-0.036,0.003-0.041,0.052-0.001,0.051
					c2.514-0.063,5.051-0.529,7.504,0.241C265.67,398.594,265.919,398.368,265.714,398.292z"/>
				<path style="fill:#D4953C;" d="M264.89,398.778c-2.323,0.223-4.571,0.949-6.905,1.087c-0.084,0.005-0.126,0.117-0.023,0.114
					c2.351-0.073,4.648-0.637,6.975-0.918C265.183,399.031,265.13,398.755,264.89,398.778z"/>
				<path style="fill:#D4953C;" d="M265.754,399.675c0.103-0.169-0.223-0.19-0.308-0.074c-0.733,1.004-1.338,2.104-1.866,3.229
					c-0.519,1.103-0.919,2.257-1.176,3.449c-0.018,0.085,0.141,0.077,0.161,0.005C263.229,403.895,264.476,401.776,265.754,399.675z
					"/>
				<path style="fill:#D4953C;" d="M264.68,406.641c0.305-2.155,2.058-3.94,1.826-6.196c-0.018-0.176-0.361-0.113-0.356,0.06
					c0.068,2.197-1.491,3.987-1.695,6.129C264.443,406.753,264.665,406.746,264.68,406.641z"/>
				<path style="fill:#D4953C;" d="M273.05,404.318c-0.217-1.211-1.025-2.184-1.938-2.962c-0.926-0.789-1.979-1.483-3.05-2.056
					c-0.098-0.053-0.347,0.074-0.214,0.172c0.954,0.696,2.011,1.23,2.928,1.983c0.923,0.757,1.759,1.705,1.987,2.912
					C272.79,404.505,273.075,404.457,273.05,404.318z"/>
				<path style="fill:#D4953C;" d="M271.311,405.303c-0.148-0.198-0.186-0.439-0.268-0.667c-0.092-0.256-0.215-0.501-0.353-0.735
					c-0.287-0.484-0.649-0.92-1.014-1.348c-0.385-0.451-0.788-0.886-1.177-1.333c-0.398-0.457-0.756-0.947-1.167-1.393
					c-0.06-0.066-0.231-0.003-0.188,0.094c0.23,0.523,0.609,0.952,0.98,1.381c0.398,0.46,0.814,0.905,1.22,1.358
					c0.39,0.436,0.778,0.882,1.084,1.383c0.15,0.245,0.278,0.501,0.375,0.771c0.077,0.214,0.156,0.416,0.311,0.587
					C271.175,405.468,271.377,405.392,271.311,405.303z"/>
				<path style="fill:#418258;" d="M270.726,398.202c0.01-1.152-0.678-2.264-1.659-2.85c-1.062-0.634-2.382-0.501-3.526-0.206
					c-0.124,0.032-0.294,0.116-0.267,0.273c0.001,0.004,0.003,0.007,0.004,0.011c-0.149,0.074-0.294,0.154-0.431,0.251
					c-1.447,1.023-2.011,3.259-0.956,4.743c0.877,1.234,2.559,1.678,3.991,1.332c0.728-0.176,1.418-0.542,1.915-1.112
					C270.369,399.986,270.719,399.074,270.726,398.202z"/>
			</g>
			<g>
				<path style="fill:#F6AE46;" d="M209.848,472.7c0.143-0.49,0.166-1.032,0.001-1.519c-0.104-0.305-0.277-0.566-0.49-0.796
					c0.773-0.348,1.416-0.979,1.814-1.724c0.252-0.471,0.415-1,0.44-1.535c0.026-0.563-0.141-1.117-0.426-1.6
					c-0.296-0.502-0.724-0.938-1.24-1.213c-0.528-0.282-1.096-0.333-1.68-0.237c-0.124,0.02-0.248,0.048-0.37,0.078
					c0.161-0.261,0.301-0.538,0.412-0.834c0.46-1.225,0.126-2.73-0.917-3.563c-1.095-0.876-2.673-0.684-3.831-0.037
					c-0.58,0.324-1.09,0.786-1.453,1.344c-0.012,0.018-0.023,0.038-0.034,0.056c-0.03-0.048-0.06-0.095-0.092-0.142
					c-0.309-0.452-0.722-0.85-1.234-1.059c-0.501-0.205-1.051-0.232-1.574-0.1c-1.164,0.293-2.145,1.191-2.501,2.34
					c-0.271,0.874-0.148,1.822,0.241,2.641c-0.907,0.046-1.775,0.443-2.334,1.19c-0.754,1.007-0.797,2.36-0.387,3.515
					c0.388,1.093,1.203,2.216,2.401,2.466c0.522,0.109,1.058,0.048,1.563-0.126c-0.134,0.269-0.228,0.555-0.241,0.855
					c-0.05,1.108,0.831,2.081,1.712,2.637c0.931,0.587,2.149,0.867,3.229,0.59c0.467-0.12,0.943-0.342,1.259-0.717
					c0.298-0.356,0.492-0.788,0.636-1.226c0.004-0.012,0.007-0.024,0.01-0.036c0.053,0.079,0.107,0.156,0.164,0.231
					c0.314,0.408,0.712,0.778,1.211,0.941c0.545,0.177,1.143,0.051,1.651-0.182C208.752,474.492,209.545,473.736,209.848,472.7z"/>
				<path style="fill:#D4953C;" d="M205.19,461.614c0.024-0.035-0.05-0.044-0.069-0.017c-1.095,1.495-1.773,3.365-2.015,5.196
					c-0.01,0.074,0.126,0.068,0.139,0.004C203.629,464.978,204.119,463.164,205.19,461.614z"/>
				<path style="fill:#D4953C;" d="M205.933,462.417c0.041-0.062-0.086-0.076-0.119-0.029c-0.833,1.189-1.37,2.53-1.96,3.847
					c-0.054,0.121,0.167,0.147,0.212,0.051C204.659,464.986,205.14,463.615,205.933,462.417z"/>
				<path style="fill:#D4953C;" d="M209.034,466.304c-0.467,0.009-0.925,0.097-1.384,0.181c-0.437,0.081-0.874,0.159-1.307,0.263
					c-0.852,0.206-1.72,0.473-2.456,0.961c-0.133,0.088,0.043,0.185,0.144,0.128c0.755-0.422,1.568-0.723,2.405-0.939
					c0.399-0.103,0.802-0.184,1.205-0.266c0.453-0.092,0.906-0.194,1.37-0.212C209.098,466.418,209.139,466.302,209.034,466.304z"/>
				<path style="fill:#D4953C;" d="M208.971,467.819c-0.595-0.306-1.346-0.106-1.979-0.062c-0.427,0.03-0.853,0.078-1.277,0.132
					c-0.44,0.056-0.888,0.095-1.323,0.187c-0.135,0.028-0.174,0.214-0.003,0.208c0.803-0.026,1.604-0.214,2.404-0.289
					c0.328-0.031,0.655-0.063,0.983-0.098c0.345-0.036,0.725-0.078,1.05,0.072C208.924,468.014,209.105,467.888,208.971,467.819z"/>
				<path style="fill:#D4953C;" d="M202.526,466.456c-0.025-0.388-0.197-0.765-0.354-1.117c-0.169-0.379-0.368-0.742-0.582-1.097
					c-0.225-0.374-0.445-0.753-0.686-1.117c-0.106-0.16-0.214-0.324-0.338-0.471c-0.152-0.18-0.327-0.335-0.436-0.547
					c-0.011-0.022-0.061-0.007-0.05,0.019c0.075,0.178,0.188,0.327,0.3,0.482c0.126,0.175,0.238,0.361,0.345,0.548
					c0.215,0.377,0.422,0.76,0.632,1.14c0.189,0.342,0.368,0.692,0.523,1.051c0.165,0.382,0.263,0.791,0.442,1.165
					C202.362,466.595,202.531,466.547,202.526,466.456z"/>
				<path style="fill:#D4953C;" d="M202.395,466.736c-0.392-0.756-0.963-1.424-1.529-2.055c-0.583-0.652-1.136-1.38-1.831-1.918
					c-0.043-0.034-0.152,0.018-0.097,0.062c0.659,0.541,1.17,1.259,1.716,1.909c0.557,0.662,1.039,1.362,1.497,2.095
					C202.216,466.931,202.459,466.861,202.395,466.736z"/>
				<path style="fill:#D4953C;" d="M202.198,467.595c-1.907-0.702-3.999-0.209-5.951-0.029c-0.027,0.003-0.032,0.04-0.001,0.039
					c1.944-0.049,3.906-0.409,5.802,0.187C202.164,467.828,202.356,467.653,202.198,467.595z"/>
				<path style="fill:#D4953C;" d="M201.561,467.97c-1.796,0.172-3.534,0.734-5.339,0.84c-0.065,0.004-0.097,0.09-0.017,0.088
					c1.817-0.056,3.593-0.493,5.393-0.71C201.788,468.166,201.747,467.953,201.561,467.97z"/>
				<path style="fill:#D4953C;" d="M202.229,468.664c0.079-0.13-0.173-0.147-0.238-0.057c-0.567,0.777-1.035,1.627-1.443,2.496
					c-0.401,0.853-0.711,1.745-0.909,2.667c-0.014,0.065,0.109,0.059,0.125,0.004C200.277,471.926,201.241,470.288,202.229,468.664z
					"/>
				<path style="fill:#D4953C;" d="M201.399,474.049c0.236-1.666,1.592-3.047,1.411-4.791c-0.014-0.136-0.279-0.087-0.275,0.046
					c0.052,1.699-1.153,3.083-1.311,4.739C201.215,474.137,201.387,474.131,201.399,474.049z"/>
				<path style="fill:#D4953C;" d="M207.87,472.254c-0.168-0.936-0.793-1.689-1.498-2.29c-0.716-0.61-1.53-1.147-2.359-1.59
					c-0.076-0.041-0.269,0.057-0.165,0.133c0.738,0.538,1.555,0.951,2.264,1.533c0.714,0.586,1.36,1.318,1.537,2.251
					C207.669,472.398,207.889,472.361,207.87,472.254z"/>
				<path style="fill:#D4953C;" d="M206.525,473.015c-0.114-0.153-0.143-0.339-0.207-0.516c-0.071-0.198-0.166-0.388-0.273-0.569
					c-0.222-0.375-0.502-0.712-0.784-1.042c-0.298-0.349-0.609-0.685-0.91-1.031c-0.308-0.354-0.585-0.732-0.902-1.077
					c-0.047-0.051-0.178-0.003-0.145,0.073c0.178,0.405,0.471,0.736,0.758,1.068c0.308,0.356,0.63,0.699,0.943,1.05
					c0.302,0.337,0.601,0.682,0.838,1.069c0.116,0.189,0.215,0.387,0.29,0.596c0.059,0.166,0.12,0.322,0.24,0.454
					C206.42,473.142,206.577,473.084,206.525,473.015z"/>
				<path style="fill:#418258;" d="M206.073,467.525c0.008-0.891-0.524-1.751-1.283-2.204c-0.821-0.49-1.841-0.387-2.727-0.159
					c-0.096,0.025-0.227,0.09-0.207,0.211c0.001,0.003,0.002,0.005,0.003,0.008c-0.115,0.057-0.228,0.119-0.333,0.194
					c-1.119,0.791-1.555,2.52-0.739,3.668c0.678,0.954,1.978,1.298,3.086,1.03c0.563-0.136,1.097-0.419,1.48-0.86
					C205.797,468.904,206.067,468.199,206.073,467.525z"/>
			</g>
		</g>
	</g>
	<g>
		<path style="fill:#EFB291;" d="M301.526,175.592c-3.195-10.595-14.762-15.928-25.644-11.945
			c-6.224,2.278-10.773,8.022-13.342,13.676c-1.497,3.296-2.359,6.878-2.818,10.439c-2.279,6.38-3.358,13.382-2.941,20.046
			c0.295,4.719,0.918,13.362,6.006,15.928c4.961,2.502,12.821-1.581,17.028-4.024c5.341-3.102,9.746-7.463,13.327-12.311
			C299.884,198.273,304.904,186.792,301.526,175.592z"/>
		<path style="opacity:0.64;fill:#EB936D;" d="M268.029,224.408c0.691-2.376,1.35-4.761,1.968-7.157
			c2.466-9.555,4.372-19.299,5.171-29.144c0.642-7.918,0.591-15.98-0.783-23.822c-5.458,2.592-9.487,7.848-11.845,13.038
			c-1.497,3.296-2.359,6.878-2.818,10.439c-2.279,6.38-3.358,13.382-2.941,20.046c0.295,4.719,0.918,13.362,6.006,15.928
			C264.322,224.51,266.134,224.651,268.029,224.408z"/>
		<path style="fill:#EB936D;" d="M296.351,175.921c-1.193-2.007-3.372-3.191-5.639-3.485c-5.218-0.677-10.584,2.995-13.888,6.703
			c-7.356,8.254-8.73,20.211-9.158,30.798c-0.025,0.62,0.883,0.19,0.949-0.242c0.262-1.707,0.526-3.441,0.815-5.183
			c0.205,1.247,0.508,2.472,0.809,3.57c0.591,2.155,1.93,4.069,4.313,4.198c5.753,0.311,9.744-6.549,12.529-10.474
			c0.262-0.369-0.321-0.475-0.539-0.224c-2.598,2.983-5.287,6.895-9.155,8.321c-3.113,1.148-4.492-1.108-5.336-3.675
			c-0.695-2.116-1.798-4.567-1.324-6.815c0.066-0.312-0.056-0.474-0.242-0.53c1.105-5.163,2.661-10.23,5.297-14.72
			c2.29-3.9,5.76-7.453,10.179-8.844c3.009-0.947,6.289-0.441,8.141,2.32c1.729,2.578,1.193,5.977,1.609,8.925
			c0.049,0.35,0.611,0.014,0.624-0.231C296.522,182.866,298.302,179.203,296.351,175.921z"/>
	</g>
	<g>
		<path style="fill:#EFB291;" d="M301.526,175.592c-3.195-10.595-14.762-15.928-25.644-11.945
			c-6.224,2.278-10.773,8.022-13.342,13.676c-1.497,3.296-2.359,6.878-2.818,10.439c-2.279,6.38-3.358,13.382-2.941,20.046
			c0.295,4.719,0.918,13.362,6.006,15.928c4.961,2.502,12.821-1.581,17.028-4.024c5.341-3.102,9.746-7.463,13.327-12.311
			C299.884,198.273,304.904,186.792,301.526,175.592z"/>
		<path style="opacity:0.64;fill:#EB936D;" d="M268.029,224.408c0.691-2.376,1.35-4.761,1.968-7.157
			c2.466-9.555,4.372-19.299,5.171-29.144c0.642-7.918,0.591-15.98-0.783-23.822c-5.458,2.592-9.487,7.848-11.845,13.038
			c-1.497,3.296-2.359,6.878-2.818,10.439c-2.279,6.38-3.358,13.382-2.941,20.046c0.295,4.719,0.918,13.362,6.006,15.928
			C264.322,224.51,266.134,224.651,268.029,224.408z"/>
		<path style="fill:#EB936D;" d="M296.351,175.921c-1.193-2.007-3.372-3.191-5.639-3.485c-5.218-0.677-10.584,2.995-13.888,6.703
			c-7.356,8.254-8.73,20.211-9.158,30.798c-0.025,0.62,0.883,0.19,0.949-0.242c0.262-1.707,0.526-3.441,0.815-5.183
			c0.205,1.247,0.508,2.472,0.809,3.57c0.591,2.155,1.93,4.069,4.313,4.198c5.753,0.311,9.744-6.549,12.529-10.474
			c0.262-0.369-0.321-0.475-0.539-0.224c-2.598,2.983-5.287,6.895-9.155,8.321c-3.113,1.148-4.492-1.108-5.336-3.675
			c-0.695-2.116-1.798-4.567-1.324-6.815c0.066-0.312-0.056-0.474-0.242-0.53c1.105-5.163,2.661-10.23,5.297-14.72
			c2.29-3.9,5.76-7.453,10.179-8.844c3.009-0.947,6.289-0.441,8.141,2.32c1.729,2.578,1.193,5.977,1.609,8.925
			c0.049,0.35,0.611,0.014,0.624-0.231C296.522,182.866,298.302,179.203,296.351,175.921z"/>
	</g>
	<g>
		<path style="fill:#EFB291;" d="M71.657,207.4c3.581,4.848,7.986,9.209,13.327,12.311c4.207,2.444,12.067,6.526,17.028,4.024
			c5.088-2.566,5.711-11.209,6.006-15.928c0.416-6.664-0.663-13.666-2.941-20.046c-0.458-3.561-1.32-7.143-2.818-10.439
			c-2.569-5.655-7.118-11.398-13.342-13.676c-10.882-3.983-22.449,1.35-25.644,11.945C59.895,186.792,64.915,198.273,71.657,207.4z"
			/>
		<path style="opacity:0.64;fill:#EB936D;" d="M96.77,224.408c-0.691-2.376-1.35-4.761-1.968-7.157
			c-2.466-9.555-4.372-19.299-5.171-29.144c-0.642-7.918-0.591-15.98,0.784-23.822c5.458,2.592,9.487,7.848,11.845,13.038
			c1.497,3.296,2.36,6.878,2.818,10.439c2.279,6.38,3.357,13.382,2.941,20.046c-0.295,4.719-0.918,13.362-6.006,15.928
			C100.477,224.51,98.665,224.651,96.77,224.408z"/>
		<path style="fill:#EB936D;" d="M68.448,175.921c1.193-2.007,3.372-3.191,5.639-3.485c5.218-0.677,10.584,2.995,13.888,6.703
			c7.355,8.254,8.73,20.211,9.158,30.798c0.025,0.62-0.883,0.19-0.949-0.242c-0.262-1.707-0.526-3.441-0.816-5.183
			c-0.205,1.247-0.508,2.472-0.809,3.57c-0.591,2.155-1.93,4.069-4.313,4.198c-5.754,0.311-9.744-6.549-12.529-10.474
			c-0.262-0.369,0.32-0.475,0.539-0.224c2.598,2.983,5.287,6.895,9.154,8.321c3.113,1.148,4.493-1.108,5.336-3.675
			c0.696-2.116,1.798-4.567,1.324-6.815c-0.066-0.312,0.056-0.474,0.242-0.53c-1.105-5.163-2.661-10.23-5.297-14.72
			c-2.29-3.9-5.76-7.453-10.179-8.844c-3.009-0.947-6.289-0.441-8.141,2.32c-1.729,2.578-1.193,5.977-1.609,8.925
			c-0.049,0.35-0.611,0.014-0.624-0.231C68.277,182.866,66.496,179.203,68.448,175.921z"/>
	</g>
	<path style="fill:#EFB291;" d="M266.009,92.018c-19.901-48.446-71.311-45.061-83.482-43.528
		c-12.169-1.553-63.573-5.025-83.556,43.388c-22.738,55.09-3.354,132.907,12.831,161.169c16.185,28.263,49.98,41.721,68.966,43.126
		c0,0,0.575,0.026,1.55,0.005c0.975,0.023,1.55-0.002,1.55-0.002c18.988-1.373,52.806-14.775,69.038-43.01
		C269.139,224.93,288.655,147.145,266.009,92.018z"/>
	<g>
		<path style="fill:#F07D77;" d="M209.27,242.801c-2.106,0.764-4.397,0.69-6.583,0.348c-1.997-0.313-3.954-0.842-5.886-1.424
			c-1.992-0.6-3.907-1.342-5.859-2.053c-1.982-0.721-4.186-1.273-6.276-0.657c-1.267,0.374-2.449,1.238-3.395,2.209
			c-0.946-0.971-2.127-1.836-3.395-2.209c-2.09-0.616-4.294-0.064-6.276,0.657c-1.952,0.711-3.867,1.453-5.859,2.053
			c-1.932,0.582-3.889,1.112-5.886,1.424c-2.186,0.342-4.476,0.415-6.583-0.348c-0.444-0.161-1.098,0.419-0.836,0.861
			c0.263,0.443,0.747,0.855,1.138,1.196c0.413,0.359,0.891,0.633,1.363,0.906c1.143,0.662,2.153,1.444,3.065,2.396
			c1.817,1.897,3.331,4.01,5.503,5.55c4.225,2.996,9.624,4.209,14.746,4.456c1.007,0.048,2.015,0.052,3.018,0
			c1.003,0.052,2.011,0.048,3.018,0c5.123-0.246,10.521-1.459,14.746-4.456c2.173-1.541,3.687-3.653,5.503-5.55
			c0.912-0.952,1.922-1.734,3.065-2.396c0.473-0.274,0.951-0.547,1.363-0.906c0.391-0.341,0.875-0.753,1.138-1.196
			C210.368,243.221,209.715,242.64,209.27,242.801z"/>
		<path style="fill:#D7513D;" d="M211.215,241.982c-1.42,1.187-3.088,1.74-4.781,2.427c-2.003,0.813-4.057,1.187-6.206,1.374
			c-2.103,0.184-4.223,0.173-6.332,0.213c-1.043,0.02-2.091,0.104-3.134,0.075c-0.958-0.026-1.914-0.132-2.873-0.115
			c-1.915,0.035-3.51,1.024-5.235,1.726c-1.936,0.787-3.961,0.592-5.862-0.183c-0.908-0.37-1.761-0.863-2.68-1.207
			c-0.866-0.324-1.749-0.596-2.665-0.739c-1.012-0.158-2.04-0.136-3.061-0.178c-1.068-0.044-2.136-0.1-3.202-0.173
			c-2.357-0.162-4.709-0.382-7.067-0.544c-1.173-0.081-2.337-0.208-3.502-0.37c-0.838-0.117-1.621-0.45-1.983-1.258
			c-0.132-0.294-0.625-0.037-0.554,0.243c0.159,0.628,0.321,1.269,0.907,1.621c0.729,0.438,1.634,0.52,2.459,0.625
			c2.223,0.284,4.47,0.345,6.699,0.576c2.203,0.229,4.413,0.364,6.625,0.465c1.067,0.049,2.087,0.108,3.119,0.406
			c0.954,0.276,1.871,0.669,2.805,1.004c1.942,0.696,3.829,1.086,5.899,0.816c1.963-0.256,3.684-1.355,5.63-1.67
			c1.003-0.162,2.037-0.087,3.045-0.021c1.05,0.068,2.081,0.051,3.132,0.027c2.218-0.052,4.452,0.019,6.652-0.319
			c2.445-0.375,4.833-1.104,7.238-1.666c1.891-0.441,4.259-0.971,5.538-2.556C212.218,242.095,211.711,241.568,211.215,241.982z"/>
	</g>
	<g>
		<g>
			<path style="opacity:0.65;fill:#92422B;" d="M177.398,224.383c-2.939-0.231-6.048-1.27-8.42-3.035
				c-1.14-0.848-2.201-1.972-2.557-3.386c-0.515-2.045,0.884-3.647,1.918-5.253c1.434-2.226,2.475-4.764,3.189-7.307
				c0.059-0.211-0.239-0.183-0.313-0.046c-1.261,2.336-2.277,4.78-3.78,6.983c-1.19,1.744-2.634,3.413-2.288,5.678
				c0.501,3.285,4.169,5.251,6.991,6.225c1.632,0.563,3.424,0.928,5.148,0.68C177.554,224.884,177.781,224.413,177.398,224.383z"/>
			<path style="opacity:0.65;fill:#92422B;" d="M192.932,215.736c-0.084-0.176-0.366,0.052-0.345,0.195
				c0.091,0.618,0.104,1.262,0.086,1.887c-0.019,0.644-0.084,1.292-0.266,1.912c-0.164,0.561-0.411,1.12-0.772,1.583
				c-0.395,0.506-0.943,0.847-1.439,1.24c-0.131,0.104-0.217,0.383,0.036,0.386c1.544,0.018,2.651-1.717,3.01-3.036
				C193.624,218.5,193.56,217.052,192.932,215.736z"/>
		</g>
		<g>
			<path style="fill:#FFFFFF;" d="M250.193,176.848c-0.624-1.152-1.331-2.257-2.014-3.375c-0.625-1.023-1.273-2.032-1.974-3.004
				c-0.294-0.408-0.603-0.809-0.921-1.203c-0.822-0.772-1.683-1.498-2.587-2.137c-3.185-2.25-7.006-3.495-10.901-3.518
				c-2.464,0.215-4.93,0.798-7.287,1.499c-1.132,0.337-2.242,0.743-3.314,1.23c-3.773,2.013-7.048,5.01-9.426,8.553
				c-0.568,0.983-1.078,2.001-1.526,3.038c-0.867,2.007-1.554,4.146-1.821,6.322c-0.196,1.602-0.184,3.321,0.434,4.831
				c0.046,0.024,0.091,0.05,0.137,0.074c0.102,0.089,0.208,0.177,0.323,0.262c1.033,0.767,2.326,1.221,3.539,1.61
				c2.354,0.755,4.75,1.364,7.195,1.744c9.465,1.471,19.579-0.126,27.514-5.71c1.086-0.764,2.137-1.597,3.126-2.482
				c0.693-0.62,1.388-1.353,1.837-2.196C251.94,180.467,251.149,178.612,250.193,176.848z"/>
			<path style="fill:#92422B;" d="M239.002,191.187c-0.323,0.063-0.649,0.122-0.974,0.182c-0.146,0.047-0.291,0.096-0.438,0.139
				c-2.149,0.637-4.367,1.036-6.596,1.256c-3.416,0.337-6.951,0.43-10.37-0.084c-2.244-0.148-4.472-0.444-6.664-0.932
				c0.891,0.332,1.787,0.646,2.698,0.922c2.174,0.66,4.367,1.056,6.636,1.171c4.549,0.231,9.193,0.043,13.618-1.118
				c1.239-0.325,2.462-0.745,3.635-1.258c0.892-0.391,1.898-0.827,2.736-1.408C241.879,190.514,240.454,190.904,239.002,191.187z"/>
			<g>
				<g>
					
						<ellipse transform="matrix(0.7071 -0.7071 0.7071 0.7071 -58.7282 214.7517)" style="fill:#92422B;" cx="229.864" cy="178.267" rx="14.537" ry="14.537"/>
					<path style="fill:#1A1716;" d="M240.688,178.402c-0.075,5.978-4.981,10.763-10.959,10.688
						c-5.978-0.075-10.763-4.981-10.688-10.959c0.075-5.978,4.981-10.763,10.959-10.688
						C235.977,167.518,240.762,172.425,240.688,178.402z"/>
					<path style="fill:#FFFFFF;" d="M228.545,172.274c-0.03,2.367-1.973,4.262-4.34,4.233c-2.367-0.03-4.262-1.973-4.233-4.34
						c0.03-2.367,1.973-4.263,4.34-4.233C226.68,167.964,228.575,169.907,228.545,172.274z"/>
					<path style="fill:#FFFFFF;" d="M220.795,178.521c-0.009,0.699-0.582,1.259-1.281,1.25c-0.699-0.009-1.259-0.582-1.25-1.281
						c0.009-0.699,0.582-1.259,1.281-1.25C220.244,177.249,220.803,177.822,220.795,178.521z"/>
				</g>
			</g>
			<path d="M251.704,181.51c0.095,0.21,0.208,0.422,0.351,0.606c1.665-0.382,3.261-1.099,4.732-1.942
				c1.434-0.822,2.786-1.793,4.015-2.899c-0.029,0.003-0.052-0.002-0.084,0.005c-0.865,0.178-1.711,0.417-2.572,0.606
				c-0.808,0.178-1.659,0.221-2.416-0.17c-0.677-0.35-1.156-0.947-1.573-1.568c-0.541-0.807-1.022-1.654-1.541-2.475
				c-1.991-3.15-4.837-6.164-8.273-7.714c-0.78-0.352-1.575-0.634-2.38-0.875c-0.96-0.429-1.94-0.811-2.932-1.135
				c-2.332-0.761-4.766-1.109-7.204-1.104c-2.986-0.055-5.985,0.434-8.773,1.452c-0.897,0.327-1.78,0.715-2.642,1.154
				c-3.49,1.65-6.665,4.08-8.85,7.242c-0.26,0.376-0.495,0.766-0.72,1.161c-1.509,2.274-2.386,4.832-2.942,7.503
				c-0.203,0.975-0.358,1.959-0.42,2.949c-0.196,1.471-0.205,2.954,0.142,4.383c0.054-0.444,0.145-0.884,0.228-1.283
				c0.219-1.067,0.522-2.116,0.833-3.16c0.33-1.11,0.613-2.232,1.018-3.318c0.19-0.51,0.401-1.012,0.624-1.508
				c0.483-1.673,1.136-3.283,2.094-4.764c2.165-3.345,5.424-6.109,9.038-7.864c0.678-0.298,1.366-0.566,2.061-0.796
				c4.661-1.546,9.777-1.705,14.441-0.132c0.157,0.053,0.312,0.111,0.468,0.167c4.068,1.609,7.351,4.904,9.683,8.533
				c0.81,1.261,1.533,2.573,2.231,3.899c0.314,0.595,0.679,1.203,0.92,1.826C251.415,180.694,251.525,181.113,251.704,181.51z"/>
		</g>
		<g>
			<path style="fill:#FFFFFF;" d="M113.755,176.848c0.624-1.152,1.331-2.257,2.014-3.375c0.624-1.023,1.273-2.032,1.974-3.004
				c0.294-0.408,0.603-0.809,0.921-1.203c0.822-0.772,1.683-1.498,2.587-2.137c3.185-2.25,7.006-3.495,10.901-3.518
				c2.464,0.215,4.93,0.798,7.287,1.499c1.132,0.337,2.242,0.743,3.314,1.23c3.773,2.013,7.048,5.01,9.426,8.553
				c0.568,0.983,1.078,2.001,1.526,3.038c0.867,2.007,1.554,4.146,1.821,6.322c0.196,1.602,0.184,3.321-0.434,4.831
				c-0.046,0.024-0.091,0.05-0.137,0.074c-0.102,0.089-0.208,0.177-0.323,0.262c-1.033,0.767-2.326,1.221-3.54,1.61
				c-2.354,0.755-4.75,1.364-7.195,1.744c-9.465,1.471-19.579-0.126-27.514-5.71c-1.086-0.764-2.137-1.597-3.126-2.482
				c-0.693-0.62-1.388-1.353-1.837-2.196C112.008,180.467,112.799,178.612,113.755,176.848z"/>
			<path style="fill:#92422B;" d="M124.945,191.187c0.323,0.063,0.649,0.122,0.973,0.182c0.146,0.047,0.291,0.096,0.438,0.139
				c2.149,0.637,4.367,1.036,6.596,1.256c3.416,0.337,6.951,0.43,10.37-0.084c2.244-0.148,4.472-0.444,6.664-0.932
				c-0.891,0.332-1.787,0.646-2.698,0.922c-2.174,0.66-4.367,1.056-6.636,1.171c-4.549,0.231-9.193,0.043-13.618-1.118
				c-1.239-0.325-2.462-0.745-3.635-1.258c-0.892-0.391-1.898-0.827-2.736-1.408C122.069,190.514,123.493,190.904,124.945,191.187z"
				/>
			<g>
				<g>
					
						<ellipse transform="matrix(0.9846 -0.1746 0.1746 0.9846 -29.1246 26.3981)" style="fill:#92422B;" cx="135.472" cy="178.73" rx="14.537" ry="14.537"/>
					<path style="fill:#1A1716;" d="M146.296,178.865c-0.075,5.978-4.981,10.763-10.959,10.688
						c-5.978-0.075-10.763-4.981-10.688-10.959c0.075-5.978,4.981-10.763,10.959-10.688
						C141.585,167.981,146.371,172.888,146.296,178.865z"/>
					<path style="fill:#FFFFFF;" d="M134.153,172.737c-0.03,2.367-1.973,4.262-4.34,4.233c-2.367-0.03-4.262-1.973-4.233-4.34
						c0.03-2.367,1.973-4.262,4.34-4.233C132.288,168.427,134.183,170.37,134.153,172.737z"/>
					<path style="fill:#FFFFFF;" d="M126.403,178.984c-0.009,0.699-0.582,1.259-1.282,1.25c-0.699-0.009-1.258-0.582-1.25-1.281
						c0.009-0.699,0.583-1.259,1.282-1.25C125.852,177.712,126.412,178.285,126.403,178.984z"/>
				</g>
			</g>
			<path d="M112.243,181.51c-0.095,0.21-0.208,0.422-0.351,0.606c-1.665-0.382-3.261-1.099-4.732-1.942
				c-1.434-0.822-2.786-1.793-4.015-2.899c0.029,0.003,0.052-0.002,0.084,0.005c0.865,0.178,1.711,0.417,2.572,0.606
				c0.808,0.178,1.659,0.221,2.416-0.17c0.677-0.35,1.156-0.947,1.573-1.568c0.542-0.807,1.022-1.654,1.541-2.475
				c1.991-3.15,4.837-6.164,8.273-7.714c0.78-0.352,1.575-0.634,2.38-0.875c0.96-0.429,1.94-0.811,2.932-1.135
				c2.332-0.761,4.766-1.109,7.204-1.104c2.986-0.055,5.985,0.434,8.773,1.452c0.897,0.327,1.78,0.715,2.642,1.154
				c3.49,1.65,6.665,4.08,8.85,7.242c0.26,0.376,0.495,0.766,0.72,1.161c1.509,2.274,2.386,4.832,2.942,7.503
				c0.203,0.975,0.358,1.959,0.42,2.949c0.196,1.471,0.205,2.954-0.142,4.383c-0.054-0.444-0.145-0.884-0.228-1.283
				c-0.219-1.067-0.522-2.116-0.833-3.16c-0.33-1.11-0.613-2.232-1.018-3.318c-0.19-0.51-0.401-1.012-0.624-1.508
				c-0.483-1.673-1.136-3.283-2.094-4.764c-2.165-3.345-5.424-6.109-9.038-7.864c-0.678-0.298-1.366-0.566-2.061-0.796
				c-4.661-1.546-9.777-1.705-14.441-0.132c-0.157,0.053-0.312,0.111-0.468,0.167c-4.068,1.609-7.351,4.904-9.683,8.533
				c-0.81,1.261-1.533,2.573-2.231,3.899c-0.314,0.595-0.679,1.203-0.92,1.826C112.533,180.694,112.423,181.113,112.243,181.51z"/>
		</g>
		<path d="M206.1,149.988c2.581-0.8,5.183-1.556,7.792-2.259c9.718-2.62,19.787-4.067,29.865-3.564
			c2.514,0.125,5.021,0.368,7.514,0.717c2.273,0.318,4.523,0.763,6.78,1.176c1.884,0.345,3.768,0.737,5.591,1.333
			c0.408,0.133,0.816,0.277,1.22,0.434c-1.193-4.306-5.254-7.584-9.159-9.362c-4.75-2.163-9.958-3.064-15.141-3.344
			c-2.654-0.143-5.315-0.127-7.971-0.043c-2.568,0.081-5.141,0.181-7.698,0.435c-1.72,0.171-3.486,0.403-5.238,0.742
			c-3.109,0.954-6.098,2.248-8.851,4.09c-2.641,1.767-5.103,3.859-7.187,6.262c-1.448,1.669-2.795,3.596-3.566,5.708
			C201.991,151.361,204.034,150.628,206.1,149.988z"/>
		<path d="M158.782,149.988c-2.581-0.8-5.183-1.556-7.792-2.259c-9.718-2.62-19.787-4.067-29.865-3.564
			c-2.514,0.125-5.021,0.368-7.513,0.717c-2.274,0.318-4.523,0.763-6.78,1.176c-1.884,0.345-3.768,0.737-5.591,1.333
			c-0.408,0.133-0.816,0.277-1.22,0.434c1.193-4.306,5.254-7.584,9.159-9.362c4.75-2.163,9.958-3.064,15.141-3.344
			c2.655-0.143,5.315-0.127,7.972-0.043c2.567,0.081,5.141,0.181,7.697,0.435c1.721,0.171,3.486,0.403,5.238,0.742
			c3.109,0.954,6.098,2.248,8.85,4.09c2.642,1.767,5.103,3.859,7.187,6.262c1.448,1.669,2.795,3.596,3.566,5.708
			C162.89,151.361,160.848,150.628,158.782,149.988z"/>
	</g>
	<path style="fill:#2B1F00;" d="M244.953,90.407c-1.359-4.539-3.341-8.924-5.878-12.926c-4.6-7.259-11.16-12.9-19.326-15.732
		c-15.031-5.213-34.312-1.458-46.149,9.141c-6.189,5.542-11.002,12.984-13.641,20.912c-1.05,0.336-2.093,0.68-3.129,1.035
		c-0.537,0.184-0.62,1.027,0.081,0.931c0.853-0.116,1.703-0.249,2.553-0.388c-0.108,0.369-0.219,0.737-0.318,1.107
		c-0.439,1.646,1.934,1.194,2.354,0.043c0.197-0.54,0.401-1.077,0.608-1.613c6-1.113,11.945-2.596,17.971-3.557
		c7.754-1.237,15.626-1.76,23.467-1.19c7.689,0.559,15.318,2.114,22.553,4.797c6.199,2.298,13.301,5.342,17.837,10.321
		c0.744,0.816,2.263,0.145,2.534-0.835C247.54,98.573,246.068,94.133,244.953,90.407z"/>
	<path style="fill:#664836;" d="M310.653,133.322c-0.955-7.263-2.131-14.407-4.236-21.437c-2.071-6.916-4.723-13.639-7.472-20.309
		c-9.962-24.178-23.004-50.346-46.731-63.708c-9.111-5.131-19.324-7.308-28.979-4.637c-4.784-6.543-12.253-10.931-19.985-13.273
		c-21.494-6.511-45.148,1.096-64.071,11.532c-20.909,11.531-39.192,27.825-53.928,46.552c-14.996,19.057-27.293,41.137-32.25,65.057
		c-2.82,13.606-3.135,27.812-1.097,41.552c0.862,5.813,2.234,11.601,3.672,17.299c1.14,4.521,2.523,9.586,5.984,12.919
		c0.633,0.609,1.974-0.38,1.964-1.115c-0.021-1.576,0.002-3.149,0.061-4.719c0.392,7.584,1.811,15.124,5.325,21.891
		c0.444,0.856,2.007-0.225,1.803-1.016c-2.265-8.769-0.652-19.072,2.624-27.383c3.375-8.563,9.887-15.683,16.936-21.428
		c6.992-5.698,14.758-10.256,22.591-14.678c7.81-4.409,15.2-9.587,21.738-15.744c0.405-0.382,0.808-0.77,1.21-1.162
		c-2.77,4.385-6.225,8.333-9.808,12.065c-3.774,3.931-7.771,7.62-12.157,10.863c-2.279,1.685-4.619,3.321-7.157,4.59
		c-2.039,1.02-4.126,1.944-6.001,3.257c-0.562,0.393-0.731,1.329,0.133,1.409c10.994,1.023,21.477-5.634,29.583-12.368
		c8.639-7.176,15.807-15.904,22.027-25.216c6.434-9.632,11.903-19.859,17.509-29.981c4.911-8.866,9.604-18.837,17.283-25.7
		c4.387-3.92,10.51-6.568,16.148-3.531c5.142,2.769,4.826,8.445,4.962,13.498c0.015,0.568,0.598,0.486,0.96,0.207
		c0.255-0.061,0.503-0.221,0.622-0.458c2.137-4.256,6.021-7.456,10.811-8.137c4.811-0.684,8.286,1.858,10.173,6.144
		c1.749,3.974,2.245,8.485,3.061,12.712c0.97,5.02,1.966,10.031,3.158,15.004c4.451,18.57,11.645,36.417,26.184,49.379
		c7.052,6.287,16.18,11.918,26.009,10.49c0.111-0.016,0.23-0.06,0.348-0.122c4.739,9.411,7.009,19.774,9.124,30.058
		c0.268,1.301,2.124,0.223,2.392-0.511c2.437-6.676,2.211-14.433,2.512-21.447c0.351-8.173,0.157-16.356-0.736-24.491
		c-0.073-0.667-0.156-1.333-0.238-1.999c1.566,6.894,2.841,13.899,4.99,20.624c0.35,1.094,2.06,0.368,2.256-0.482
		C313.191,161.419,312.508,147.427,310.653,133.322z M273.86,153.466c-0.24-0.433-0.473-0.87-0.701-1.308
		c1.79,1.59,3.594,3.17,5.181,4.954c3.487,3.921,6.585,8.195,9.247,12.717C281.961,165.359,277.359,159.77,273.86,153.466z"/>
	<path style="fill:#405761;" d="M284.247,148.283c-4.96-0.62-10.539-0.62-19.219-4.34c-8.68-3.72-29.138-4.96-44.637-1.86
		c-15.499,3.1-21.444,12.139-23.248,13.949c-3.016,3.026-11.159,3.72-12.709,3.41c-1.55,0.31-9.693-0.384-12.709-3.41
		c-1.805-1.81-7.749-10.849-23.248-13.949c-15.499-3.1-35.958-1.86-44.637,1.86c-8.679,3.72-14.259,3.72-19.219,4.34
		c-4.96,0.62-4.96,4.34-4.96,4.34c0.62,9.299,3.893,8.406,5.58,11.779c0.62,1.24,1.24,8.059,1.86,16.739
		c0.62,8.679,8.06,22.938,19.839,27.898c11.779,4.96,34.718,7.439,48.977,0c14.259-7.44,17.359-24.798,19.839-33.478
		c2.48-8.679,8.679-6.82,8.679-6.82s6.2-1.86,8.679,6.82c2.48,8.679,5.58,26.038,19.839,33.478c14.259,7.439,37.197,4.96,48.977,0
		c11.779-4.96,19.219-19.219,19.839-27.898c0.62-8.679,1.24-15.499,1.86-16.739c1.686-3.373,4.96-2.48,5.58-11.779
		C289.207,152.623,289.207,148.903,284.247,148.283z M152.506,204.39c-14.259,7.439-37.198,6.2-48.977-3.1
		C91.75,191.99,91.75,170.912,92.99,162.852c0,0,0-10.539,18.599-13.639c18.599-3.1,35.338-3.72,48.357,4.96
		c0,0,8.059,4.34,8.679,14.879C169.245,179.591,166.765,196.95,152.506,204.39z M265.338,201.29
		c-11.779,9.299-34.718,10.539-48.977,3.1c-14.259-7.439-16.739-24.798-16.119-35.338c0.62-10.539,8.679-14.879,8.679-14.879
		c13.019-8.679,29.758-8.059,48.357-4.96c18.599,3.1,18.599,13.639,18.599,13.639C277.117,170.912,277.117,191.99,265.338,201.29z"
		/>
</g>
</svg>
